<svg xmlns="http://www.w3.org/2000/svg" viewBox="0 0 500 375.85"><defs><style>.cls-1{fill:#ebebeb;}.cls-2{fill:#e0e0e0;}.cls-3{fill:#e6e6e6;}.cls-4{fill:#f5f5f5;}.cls-5{fill:#f0f0f0;}.cls-12,.cls-27,.cls-6{fill:none;}.cls-6{stroke:#fff;stroke-width:11px;}.cls-27,.cls-6{stroke-linecap:round;stroke-linejoin:round;}.cls-10,.cls-15,.cls-7{fill:#fafafa;}.cls-13,.cls-8{fill:#407bff;}.cls-16,.cls-9{fill:#6c55f9;}.cls-10,.cls-11,.cls-9{opacity:0.5;}.cls-12,.cls-13,.cls-15,.cls-18{stroke:#407bff;stroke-miterlimit:10;}.cls-14,.cls-18,.cls-21{fill:#fff;}.cls-17,.cls-26{opacity:0.2;}.cls-19{fill:#e58a7b;}.cls-20{opacity:0.3;}.cls-21{opacity:0.8;}.cls-22{fill:#263238;}.cls-23{fill:#ff8b7b;}.cls-24{fill:#df5753;}.cls-25{opacity:0.6;}.cls-25,.cls-26{isolation:isolate;}.cls-27{stroke:#263238;}</style></defs><g id="Camada_2" data-name="Camada 2"><g id="Backrground_Complete" data-name="Backrground Complete"><rect class="cls-1" y="328.65" width="500" height="0.25"/><rect class="cls-1" x="52.46" y="344.74" width="33.12" height="0.25"/><rect class="cls-1" x="135.33" y="347.46" width="44.5" height="0.25"/><rect class="cls-1" x="86.58" y="335.46" width="70.42" height="0.25"/><rect class="cls-1" x="437.21" y="337.14" width="12.69" height="0.25"/><rect class="cls-1" x="391.47" y="337.14" width="36.83" height="0.25"/><rect class="cls-1" x="277.21" y="341.36" width="31.12" height="0.25"/><path class="cls-1" d="M237,1.25H43.91a5.71,5.71,0,0,0-5.7,5.66V278.34a5.71,5.71,0,0,0,5.7,5.71H237a5.71,5.71,0,0,0,5.71-5.71V7A5.71,5.71,0,0,0,237,1.25Zm5.46,277.09A5.48,5.48,0,0,1,237,283.8H43.91a5.46,5.46,0,0,1-5.45-5.46V6.91a5.46,5.46,0,0,1,5.45-5.46H237a5.48,5.48,0,0,1,5.46,5.46Z"/><path class="cls-1" d="M453.31,1.25H260.21a5.72,5.72,0,0,0-5.71,5.66V278.34a5.73,5.73,0,0,0,5.71,5.71h193.1a5.7,5.7,0,0,0,5.69-5.71V6.91A5.71,5.71,0,0,0,453.31,1.25Zm5.46,277.09a5.48,5.48,0,0,1-5.46,5.46H260.21a5.48,5.48,0,0,1-5.46-5.46V6.91a5.48,5.48,0,0,1,5.46-5.46h193.1a5.48,5.48,0,0,1,5.46,5.46Z"/><path class="cls-1" d="M67.89,264.92a4.61,4.61,0,1,1-4.61-4.61A4.6,4.6,0,0,1,67.89,264.92Z"/><rect class="cls-1" x="61.67" y="269.24" width="3.63" height="59.66"/><path class="cls-1" d="M194.23,264.92a4.61,4.61,0,1,1-4.61-4.61A4.6,4.6,0,0,1,194.23,264.92Z"/><rect class="cls-1" x="188.01" y="269.24" width="3.63" height="59.66"/><path class="cls-2" d="M188,269.24s-21.1,48.41-62.27,44.92S65.3,269.24,65.3,269.24l0,0c1,.85,33.26,28.21,64.42,29.81,27.94,1.43,56.39-27.86,58.18-29.72Z"/><path class="cls-2" d="M303.64,269.24v0c-.58,1.42-19.87,48.33-57,44.89s-54.74-43.63-55.29-44.89v0s30,28.2,59,29.83C276.74,300.55,303.64,269.24,303.64,269.24Z"/><path class="cls-2" d="M434.29,269.27c-.06.14-.31.67-.75,1.54-4.28,8.28-26.17,46.46-64.92,43.35-43.45-3.49-63.77-44.92-63.77-44.92s1,.81,2.82,2.18c8.9,6.64,37.45,26.3,65.17,27.65C402.84,300.53,433.36,270.19,434.29,269.27Z"/><path class="cls-1" d="M308.25,264.92a4.62,4.62,0,1,1-4.61-4.61A4.61,4.61,0,0,1,308.25,264.92Z"/><rect class="cls-1" x="302.02" y="269.24" width="3.63" height="59.66"/><path class="cls-1" d="M440.53,264.92a4.61,4.61,0,1,1-4.61-4.61A4.6,4.6,0,0,1,440.53,264.92Z"/><rect class="cls-1" x="434.31" y="269.24" width="3.63" height="59.66"/><path class="cls-3" d="M434.29,269.27c-.06.14-.31.67-.75,1.54-7.53,9.72-30.7,36.12-60,35.59-30.57-.55-58.3-27.1-65.87-35,8.9,6.64,37.45,26.3,65.17,27.65C402.84,300.53,433.36,270.19,434.29,269.27Z"/><path class="cls-3" d="M303.64,269.24v0c-.63,1.13-21,37.88-56.13,37.14s-55.5-36-56.13-37.14v0s30,28.2,59,29.83C276.74,300.55,303.64,269.24,303.64,269.24Z"/><path class="cls-3" d="M187.92,269.35C186.09,271.5,156.41,306,128,306.41c-28.95.39-61.75-36.14-62.65-37.15,1,.85,33.26,28.21,64.42,29.81C157.68,300.5,186.13,271.21,187.92,269.35Z"/><rect class="cls-2" x="421.2" y="95.95" width="61.88" height="108.83"/><rect class="cls-4" x="416.45" y="95.95" width="61.88" height="108.83"/><rect class="cls-3" x="423.73" y="102.49" width="47.31" height="95.01"/><polygon class="cls-5" points="471.05 103.23 478.33 95.95 416.45 95.95 423.74 103.23 471.05 103.23"/><rect class="cls-2" x="423.73" y="150.18" width="1.85" height="47.31"/><polygon class="cls-5" points="478.33 204.78 471.05 197.5 423.74 197.5 416.45 204.78 478.33 204.78"/><path class="cls-6" d="M436.91,113.39c-2.78,4.29.08,9.5,3.27,12.6,2.32,2.27,5.08,4,7.57,6.1A35.22,35.22,0,0,1,458,146.18a12.62,12.62,0,0,1,.45,8.39c-1.26,3.73-4.57,6.21-6.49,9.54a36.58,36.58,0,0,0-4.39,13.1c-.45,3.33-.24,7.16,2.28,9.38"/><rect class="cls-2" x="25.12" y="109.42" width="78.98" height="78.98"/><rect class="cls-4" x="19.06" y="109.42" width="78.98" height="78.98"/><rect class="cls-3" x="28.35" y="118.71" width="60.4" height="60.4"/><polygon class="cls-5" points="88.75 118.71 98.04 109.42 19.06 109.42 28.35 118.71 88.75 118.71"/><rect class="cls-2" x="28.35" y="118.71" width="2.36" height="60.4"/><path class="cls-5" d="M67.39,132.22a9.48,9.48,0,0,0-1.61.87C63,135,60.3,137,57.07,138c-3.54,1.09-7.31,1-10.75,2.52a11.11,11.11,0,0,0-6.2,6.82c-2.8,9.07,4.59,17.82,13,20.32,9.61,2.87,19.34-3.84,22.82-12.75a49.54,49.54,0,0,0,2.44-11.3c.37-2.72,2.21-5.3,1.09-8.06C77.62,131.06,71.47,130.52,67.39,132.22Z"/><path class="cls-5" d="M47.27,131.85c2.07,5,11.06,3.68,12.22-1.34,1.13-4.87-4-7.43-8.06-6.07C48.46,125.44,45.94,128.63,47.27,131.85Z"/><polygon class="cls-5" points="98.04 188.4 88.75 179.11 28.35 179.11 19.06 188.4 98.04 188.4"/><rect class="cls-7" x="43.24" y="196.73" width="22.06" height="12.54"/></g><g id="Painting"><polygon class="cls-5" points="395.66 246.08 129.62 246.08 140.85 234.17 384.44 234.17 395.66 246.08"/><rect class="cls-2" x="135.15" y="54.64" width="266.04" height="191.44"/><rect class="cls-4" x="129.62" y="54.64" width="266.04" height="191.44"/><rect class="cls-2" x="140.84" y="62.72" width="243.59" height="171.45"/><rect class="cls-8" x="151.61" y="70.36" width="219.98" height="156.17"/><polygon class="cls-5" points="395.66 54.64 384.44 62.72 140.85 62.72 129.62 54.64 395.66 54.64"/><path class="cls-9" d="M221.91,85.21A31.8,31.8,0,1,1,162,70.36h56.24A31.61,31.61,0,0,1,221.91,85.21Z"/><circle class="cls-10" cx="297.25" cy="161.06" r="32.46" transform="translate(90.22 428.33) rotate(-80.69)"/><path class="cls-11" d="M371.59,87.21V197.59a53.64,53.64,0,0,1-5.4.27,55.46,55.46,0,1,1,0-110.92A53.64,53.64,0,0,1,371.59,87.21Z"/></g><g id="Shape"><g id="Shadow--inject-1"><ellipse id="path--inject-1" class="cls-4" cx="234.19" cy="362.49" rx="193.89" ry="11.32"/></g><ellipse class="cls-8" cx="260.45" cy="363.2" rx="51.09" ry="7.12"/><ellipse class="cls-8" cx="289.23" cy="371.24" rx="16.06" ry="4.6"/><ellipse class="cls-8" cx="316.96" cy="368.62" rx="3.27" ry="0.83"/></g><g id="Window"><path class="cls-12" d="M427.27,56.28V256a30.5,30.5,0,0,1-30.5,30.5H103.23A30.5,30.5,0,0,1,72.73,256V56.28a30.51,30.51,0,0,1,30.5-30.5H396.77a30.51,30.51,0,0,1,30.5,30.5Z"/><path class="cls-13" d="M422,39.15H78a30.45,30.45,0,0,1,25.23-13.37H396.77A30.45,30.45,0,0,1,422,39.15Z"/><circle class="cls-14" cx="113.64" cy="32.47" r="1.97"/><circle class="cls-14" cx="123.87" cy="32.47" r="1.97"/><circle class="cls-14" cx="134.09" cy="32.47" r="1.97"/><rect class="cls-2" x="365" y="0.09" width="44.1" height="119.88"/><rect class="cls-15" x="358.86" y="0.5" width="44.1" height="119.09"/><rect class="cls-16" x="365.25" y="81.26" width="31.32" height="31.32"/><rect class="cls-8" x="365.25" y="6.14" width="31.32" height="31.32"/><rect class="cls-11" x="365.25" y="6.14" width="31.32" height="31.32"/><rect class="cls-8" x="365.25" y="43.72" width="31.32" height="31.32"/><rect class="cls-17" x="365.25" y="43.72" width="31.32" height="31.32"/><line class="cls-12" x1="319.75" y1="296.03" x2="330.99" y2="296.03"/><line class="cls-12" x1="257.43" y1="296.03" x2="310.9" y2="296.03"/><line class="cls-12" x1="79.5" y1="75.42" x2="79.5" y2="65.1"/><line class="cls-12" x1="79.5" y1="124.67" x2="79.5" y2="88.04"/><rect class="cls-2" x="294.21" y="219.53" width="138" height="50.42"/><rect class="cls-15" x="289.66" y="220.29" width="137.58" height="49.21"/><rect class="cls-18" x="297.25" y="226.42" width="36.96" height="36.96"/><rect class="cls-18" x="340.38" y="226.42" width="36.96" height="36.96"/><rect class="cls-18" x="383.5" y="226.42" width="36.96" height="36.96"/><circle class="cls-8" cx="315.74" cy="244.74" r="9.07" transform="translate(-80.58 294.94) rotate(-45)"/><rect class="cls-8" x="349.62" y="235.66" width="18.47" height="18.47"/><polygon class="cls-8" points="411.13 253.97 392.83 253.97 401.98 235.66 411.13 253.97"/></g><g id="Character"><path class="cls-19" d="M120.28,160.69c-1.19,2.6-2.44,5.47-3.53,8.25s-2.2,5.65-3.17,8.5a107.53,107.53,0,0,0-4.48,17.28l-.28,1.84a3,3,0,0,0,.09.94,9.85,9.85,0,0,0,1.38,2.91,36.76,36.76,0,0,0,5.56,6.26,84.46,84.46,0,0,0,6.91,5.77c2.41,1.86,4.93,3.66,7.43,5.36l-2.34,4.4A88.58,88.58,0,0,1,111,212.54a40.8,40.8,0,0,1-7.51-7.11,17.72,17.72,0,0,1-3-5.35,12,12,0,0,1-.6-3.75v-1.57l.12-1.25a97.83,97.83,0,0,1,4.1-19.21c1-3.08,2-6.15,3.2-9.14s2.42-5.92,3.93-9Z"/><path class="cls-8" d="M216,169.66a24.93,24.93,0,0,1-5,10,23.84,23.84,0,0,1-6.94,5.76c-5.05,2.92-10,5.92-15.12,8.76-10.08,5.8-20.25,11.38-30.47,16.86s-20.59,10.67-31,15.73-21.06,9.88-31.73,14.15c-4.64,1.51-9.27-1.33-10.33-6.35a10.59,10.59,0,0,1,3.17-9.86c9.27-7.64,18.82-14.59,28.43-21.48s19.23-13.52,29.14-19.91,19.72-12.69,29.68-18.76c5-3.08,10-6,15-9a19.71,19.71,0,0,1,18.08-2.07C214.69,155.78,217.77,162.75,216,169.66Z"/><path class="cls-20" d="M216,169.66a24.93,24.93,0,0,1-5,10,23.84,23.84,0,0,1-6.94,5.76c-5.05,2.92-10,5.92-15.12,8.76-10.08,5.8-20.25,11.38-30.47,16.86s-20.59,10.67-31,15.73-21.06,9.88-31.73,14.15c-4.64,1.51-9.27-1.33-10.33-6.35a10.59,10.59,0,0,1,3.17-9.86c9.27-7.64,18.82-14.59,28.43-21.48s19.23-13.52,29.14-19.91,19.72-12.69,29.68-18.76c5-3.08,10-6,15-9a19.71,19.71,0,0,1,18.08-2.07C214.69,155.78,217.77,162.75,216,169.66Z"/><path class="cls-8" d="M259.66,161.06c-13.82,13.76-30,15.17-39.76-6.9-11.72-26.42,15.78-38.37,29.1-36.09,7.19,1.22,15.05,1.88,21.86-.63,5.82-2.13,10.87-6.56,14.06-14.9C282.5,126.61,272,148.76,259.66,161.06Z"/><path class="cls-21" d="M259.66,161.06c-13.82,13.76-30,15.17-39.76-6.9-11.72-26.42,15.78-38.37,29.1-36.09,7.19,1.22,15.05,1.88,21.86-.63,5.82-2.13,10.87-6.56,14.06-14.9C282.5,126.61,272,148.76,259.66,161.06Z"/><path class="cls-8" d="M259.66,161.06a11.13,11.13,0,0,1-2.35-1.58c-3.52-3.14-4.4-9.21-1.15-12.64-3.62-1.31-5.57-5.63-4.91-9.41s3.48-6.94,6.83-8.84c2.24-1.27,4.73-2.06,6.93-3.42a13.35,13.35,0,0,0,5.85-7.73c5.82-2.13,10.87-6.56,14.06-14.9C282.5,126.61,272,148.76,259.66,161.06Z"/><path class="cls-8" d="M247.38,144.33a1.23,1.23,0,0,1-1.55.81,1.24,1.24,0,1,1,.75-2.36A1.23,1.23,0,0,1,247.38,144.33Z"/><path class="cls-8" d="M248.46,136.86a4,4,0,1,1-2.61-5A4,4,0,0,1,248.46,136.86Z"/><path class="cls-17" d="M259.66,161.06a11.13,11.13,0,0,1-2.35-1.58c-3.52-3.14-4.4-9.21-1.15-12.64-3.62-1.31-5.57-5.63-4.91-9.41s3.48-6.94,6.83-8.84c2.24-1.27,4.73-2.06,6.93-3.42a13.35,13.35,0,0,0,5.85-7.73c5.82-2.13,10.87-6.56,14.06-14.9C282.5,126.61,272,148.76,259.66,161.06Z"/><path class="cls-17" d="M247.38,144.33a1.23,1.23,0,0,1-1.55.81,1.24,1.24,0,1,1,.75-2.36A1.23,1.23,0,0,1,247.38,144.33Z"/><path class="cls-17" d="M248.46,136.86a4,4,0,1,1-2.61-5A4,4,0,0,1,248.46,136.86Z"/><path class="cls-22" d="M121.75,205.21s-7.58,21.16-3.33,34,12.8,32.49,12.38,38.48S99,326.89,96.44,342.28l10.41,2.94s31.84-38.48,39.44-50.45,8-22.23,2.89-37.19c0,0,12,13.25,12.83,17.95s-10.26,49.17-6,66.7l13.68,3s11.12-49.59,14.11-59.43,0-25.22-4.7-34.63-17.47-45.95-17.47-45.95Z"/><polygon class="cls-23" points="104.09 347.57 100.25 356.05 92.34 355.71 96.45 345.76 104.09 347.57"/><polygon class="cls-23" points="166.96 348.87 165.53 356.05 157.87 356.05 159.21 345.76 166.96 348.87"/><path class="cls-12" d="M168,356.05s1.73-4.93,3.05-4.31-2.07,4.93-2.07,4.93,3.82-2.92,4.35-1.69S168,356.05,168,356.05Z"/><path class="cls-12" d="M103.1,356.05s1-4.4,2.11-3.88S103.1,356.05,103.1,356.05Z"/><path class="cls-12" d="M103.1,356.67s5.62-2.68,6-1.26S103.1,356.67,103.1,356.67Z"/><path class="cls-22" d="M91,364.59s-1.49,0-1.57-1.32S91,355.41,91,355.41h10.92s4.8,4.13,7.36,4.59,4.38.54,4.47,1.78-2,2.81-2,2.81Z"/><path class="cls-22" d="M156.78,355.41s-2.19,7.9-1.84,8.78,28.77,0,28.77,0a3,3,0,0,0,1.3-2.54c-.16-1.58-8.84-.88-11.91-2.55s-6.15-3.69-6.15-3.69Z"/><polygon class="cls-8" points="110.76 344.3 93.59 340.79 92.34 345.22 107.94 349.72 110.76 344.3"/><path class="cls-8" d="M171.75,344.05c-.27-.18-17.2-2.35-17.2-2.35l1.09,5.16,16.11,2.86Z"/><polygon class="cls-20" points="149.18 257.58 139.31 247.77 151.3 264.83 149.18 257.58"/><path class="cls-24" d="M157.87,113.81a25.61,25.61,0,0,0,2,5,2,2,0,0,1-2,.64Z"/><path class="cls-22" d="M157.85,111c.52,0,.94.65.94,1.44s-.42,1.44-.94,1.44-.94-.64-.94-1.44S157.33,111,157.85,111Z"/><path class="cls-19" d="M133.42,123c1.14,5.82,2.28,16.5-1.81,20.4,0,0,1.61,5.91,12.44,5.91,11.91,0,5.68-5.91,5.68-5.91-6.5-1.56-6.33-6.38-5.19-10.91Z"/><path class="cls-19" d="M130.25,109.72c.6,9.73.65,13.87,5.56,18.86,7.4,7.52,19.22,4.66,21.54-5,2.09-8.76,2-21.34-7.56-25.21C143,95.56,134,97,131.22,103.74A13.32,13.32,0,0,0,130.25,109.72Z"/><path class="cls-16" d="M128.17,144.06h0a2.21,2.21,0,0,1,1.82-2.5c4.4-.73,14.42-2.21,19.46-1.51,3.75.53,4.73,2.71,4.89,4.5a2.2,2.2,0,0,1-2,2.37H152l-21.77-1A2.22,2.22,0,0,1,128.17,144.06Z"/><path class="cls-25" d="M128.17,144.06h0a2.21,2.21,0,0,1,1.82-2.5c4.4-.73,14.42-2.21,19.46-1.51,3.75.53,4.73,2.71,4.89,4.5a2.2,2.2,0,0,1-2,2.37H152l-21.77-1A2.22,2.22,0,0,1,128.17,144.06Z"/><path class="cls-16" d="M114.67,145.62c-4.06,1-8,15.72-8,15.72l15.87,10.59s5.28-11.67,3.43-16.78C124.1,149.83,119.77,144.41,114.67,145.62Z"/><path class="cls-26" d="M117.78,155.13,116.68,168l5.89,4a52.89,52.89,0,0,0,3.6-11.45Z"/><path class="cls-16" d="M166.34,145.91s4.68,1.64-4.7,59.3H121.75c.67-16.28.69-26.3-7.08-59.59a117.94,117.94,0,0,1,16.94-2.22,124.53,124.53,0,0,1,18.12,0C157.52,144.11,166.34,145.91,166.34,145.91Z"/><path class="cls-16" d="M169.83,145.68a16,16,0,0,1,3.61,4.07c1.39,2.27,2.93,10.15,2.43,13.31l-13.6,10.3s-10.29-25.54-8.43-30.64c1.14-3.11,4.51-3.21,7-2.35A31.11,31.11,0,0,1,169.83,145.68Z"/><path class="cls-22" d="M156.19,104.7a15.5,15.5,0,0,1-1.84,8.29c-2.23,3.82-2.68,11.28-.34,15,1.89,3,5.54,4.34,7.82,7.07s3.41,6.45,1.51,9.83c-1.69,3-4.79,4.74-6.81,7.48-2.74,3.71-5.37,8.5-10.74,8-7.65-.66-8.76-7.61-14.18-6.94s-13.68,1.81-14.93-6.58c-.78-5.15,3.1-8.33,4.1-13,.72-3.3-1.29-6.23-1.45-9.49a12.73,12.73,0,0,1,3.32-9.24c1.66-1.83,3.72-3.07,4.75-5.43.82-1.87,1.42-3.83,2.21-5.72,1.66-4,4.8-7,9.46-7.56C152,94.9,155.5,99.51,156.19,104.7Z"/><path class="cls-19" d="M150.79,115.18a9.67,9.67,0,0,0,1.53,5.22c1.32,2,2.89,1.25,3.28-.9.35-1.89.08-5.23-1.61-6.54S150.81,112.94,150.79,115.18Z"/><path class="cls-19" d="M174.66,164s-1.19,26.55,3.64,31,15.54-2.45,15.54-2.45l2.11-9.18,6.68.3S203.93,195,196,200s-14.77,10.22-24.26,2.58c-10.79-8.69-8.73-29.94-8.73-29.94Z"/><path class="cls-27" d="M156.62,109.42a4.58,4.58,0,0,1,1.23-2"/><path class="cls-26" d="M163,172.62,158.78,164l.58,10.27A10.5,10.5,0,0,0,163,172.62Z"/></g></g></svg>