<svg width="389" height="189" viewBox="0 0 389 189" fill="none" xmlns="http://www.w3.org/2000/svg">
<rect x="0.5" y="100.098" width="88.4025" height="88.4025" rx="44.2012" fill="white" stroke="#D8DEE5"/>
<rect x="200.479" y="0.5" width="88.4025" height="88.4025" rx="44.2012" fill="white" stroke="#D8DEE5"/>
<path d="M244.681 25.0952C233.868 25.0952 225.075 33.886 225.075 44.701C225.075 55.5161 233.865 64.3068 244.681 64.3068C255.496 64.3068 264.286 55.5136 264.286 44.701C264.286 33.8884 255.493 25.0952 244.681 25.0952ZM244.681 61.687C242.975 61.6876 241.279 61.4323 239.649 60.9297C240.338 59.8048 241.379 57.9496 241.762 56.4792C241.968 55.6827 242.818 52.4429 242.818 52.4429C243.369 53.4991 244.994 54.3961 246.707 54.3961C251.832 54.3961 255.523 49.6858 255.523 43.8261C255.523 38.2115 250.942 34.0159 245.053 34.0159C237.723 34.0159 233.834 38.9394 233.834 44.2942C233.834 46.7841 235.159 49.8843 237.279 50.872C237.6 51.0263 237.769 50.9553 237.845 50.6416C237.899 50.4039 238.191 49.2545 238.321 48.7129C238.345 48.6281 238.346 48.5387 238.326 48.453C238.306 48.3673 238.265 48.2881 238.206 48.2227C237.502 47.3723 236.941 45.8014 236.941 44.3481C236.941 40.6034 239.774 36.9739 244.607 36.9739C248.781 36.9739 251.699 39.8143 251.699 43.8825C251.699 48.4776 249.379 51.6635 246.362 51.6635C244.693 51.6635 243.443 50.2838 243.85 48.5928C244.333 46.5709 245.259 44.3947 245.259 42.9414C245.259 41.6401 244.563 40.5519 243.107 40.5519C241.399 40.5519 240.036 42.314 240.036 44.679C240.036 46.1788 240.541 47.1983 240.541 47.1983C240.541 47.1983 238.855 54.3128 238.549 55.6386C238.203 57.1091 238.343 59.1701 238.488 60.5107C235.306 59.2692 232.572 57.0961 230.646 54.2757C228.719 51.4553 227.689 48.1191 227.69 44.7035C227.69 41.3447 228.687 38.0614 230.553 35.2689C232.419 32.4763 235.072 30.2999 238.175 29.0147C241.278 27.7296 244.693 27.3935 247.987 28.0488C251.281 28.7042 254.307 30.3217 256.682 32.6968C259.057 35.0718 260.675 38.0977 261.33 41.392C261.986 44.6863 261.65 48.1009 260.364 51.2041C259.079 54.3073 256.903 56.9598 254.11 58.8262C251.318 60.6926 248.034 61.689 244.676 61.6895L244.681 61.687Z" fill="#161616"/>
<path d="M63.4778 153.375C63.2137 152.619 62.6668 152.26 62.1386 151.882C62.0443 151.823 61.9312 151.763 61.8557 151.723C61.7237 151.623 61.5162 151.544 61.3465 151.444C59.5735 150.449 58.1778 149.195 57.2159 147.722C56.958 147.3 56.7249 146.861 56.518 146.409C56.4426 146.15 56.4426 146.01 56.4992 145.891C56.5558 145.792 56.6312 145.692 56.7255 145.632C57.0084 145.413 57.3479 145.214 57.5554 145.055C57.9515 144.796 58.2344 144.597 58.423 144.458C59.1586 143.92 59.6678 143.303 59.9885 142.706C60.4411 141.811 60.4977 140.756 60.1394 139.82C59.6678 138.487 58.4607 137.651 57.0084 137.651C56.7066 137.651 56.4049 137.69 56.0654 137.75C56.0654 137.77 55.9522 137.79 55.8768 137.81C55.8768 136.894 55.8579 135.939 55.7825 134.983C55.5184 131.639 54.4056 129.888 53.2362 128.495C52.5006 127.619 51.633 126.862 50.6711 126.285C48.917 125.23 46.9177 124.693 44.7487 124.693C42.5797 124.693 40.5993 125.23 38.8452 126.285C37.8644 126.862 36.9968 127.619 36.2612 128.495C35.0918 129.888 33.9979 131.639 33.715 134.983C33.6395 135.939 33.6207 136.894 33.6395 137.81C33.5452 137.79 33.4321 137.77 33.4321 137.75C33.0926 137.69 32.7908 137.651 32.489 137.651C31.0367 137.651 29.8296 138.487 29.3581 139.82C28.9997 140.756 29.0563 141.811 29.509 142.706C29.8296 143.303 30.3388 143.92 31.0744 144.458C31.263 144.597 31.5459 144.796 31.942 145.075L32.7342 145.612C32.8474 145.692 32.9228 145.792 32.9983 145.891C33.0548 146.03 33.0548 146.17 32.9605 146.428C32.7719 146.886 32.5456 147.284 32.2815 147.722C31.3385 149.175 29.9993 150.409 28.283 151.385C27.3588 151.902 26.4157 152.26 26.0196 153.375C25.7179 154.251 25.8876 155.246 26.6798 156.062C26.9627 156.361 27.2833 156.619 27.6417 156.819C28.3961 157.237 29.1883 157.595 29.9993 157.814C30.1691 157.873 30.3388 157.933 30.4709 158.053C30.7538 158.291 30.7161 158.69 31.0933 159.227C31.2819 159.545 31.5459 159.804 31.7911 160.003C32.5644 160.58 33.4321 160.6 34.3751 160.64C35.205 160.68 36.1481 160.72 37.2043 161.098C37.6947 161.217 38.1473 161.556 38.6943 161.914C40.0334 162.75 41.7687 163.904 44.7487 163.904C47.7099 163.904 49.464 162.75 50.822 161.894C51.3501 161.556 51.8216 161.217 52.2932 161.098C53.3305 160.72 54.2924 160.68 55.1223 160.64C56.0654 160.62 56.933 160.58 57.7063 160.003C58.0269 159.764 58.291 159.446 58.4985 159.088C58.7625 158.61 58.7625 158.232 59.0077 158.053C59.1397 157.953 59.2906 157.873 59.4604 157.834C60.2903 157.595 61.0824 157.237 61.8369 156.819C62.233 156.6 62.5725 156.321 62.8554 155.983H62.8742C63.6098 155.166 63.7607 154.251 63.4778 153.375ZM60.8372 154.868C59.2152 155.803 58.1401 155.704 57.3102 156.241C57.0084 156.48 56.9141 156.799 56.8575 157.117L56.801 157.515C56.7632 157.794 56.7066 158.033 56.518 158.172C55.8768 158.63 54.0095 158.132 51.5953 158.968C49.596 159.665 48.3323 161.675 44.7487 161.675C41.1651 161.675 39.9391 159.685 37.9021 158.968C35.5068 158.132 33.6207 158.63 32.9983 158.172C32.489 157.794 32.9039 156.759 32.1872 156.241C31.3573 155.704 30.2823 155.803 28.7168 154.868C28.1321 154.549 28.0378 154.251 28.1132 154.112C28.1887 153.932 28.415 153.793 28.5659 153.713C31.678 152.141 33.4321 150.091 34.3185 148.479C35.1484 147.045 35.3182 145.951 35.3748 145.792C35.4313 145.374 35.4879 145.055 35.0541 144.637C34.6392 144.219 32.7908 143.025 32.2815 142.647C31.4139 142.01 31.0556 141.393 31.3196 140.616C31.5459 140.079 31.9798 139.88 32.489 139.88C32.6399 139.88 32.7908 139.9 32.9417 139.94C33.8847 140.139 34.7901 140.636 35.3182 140.776C35.3748 140.796 35.4313 140.796 35.5068 140.796C35.6765 140.796 35.7708 140.736 35.8274 140.616C35.8463 140.537 35.8651 140.437 35.8651 140.318C35.7897 139.243 35.6577 137.153 35.8086 135.182C35.884 134.346 36.016 133.63 36.1858 133.013C36.563 131.659 37.2043 130.764 37.8456 129.948C38.3171 129.37 40.505 126.922 44.7487 126.922C48.238 126.922 50.3316 128.594 51.2369 129.49C51.4255 129.689 51.5764 129.848 51.6519 129.948C52.3686 130.823 53.0099 131.779 53.3871 133.292C53.5191 133.829 53.6323 134.466 53.6889 135.182C53.8398 137.133 53.7077 139.243 53.6323 140.318C53.6323 140.397 53.6323 140.477 53.6511 140.537C53.67 140.716 53.7832 140.796 53.9907 140.796C54.0661 140.796 54.1227 140.796 54.1793 140.776C54.7074 140.636 55.6127 140.139 56.5558 139.92C56.7067 139.9 56.8575 139.88 57.0084 139.88C57.48 139.88 57.9515 140.059 58.1401 140.517L58.159 140.596H58.1778V140.616C58.4607 141.373 58.0835 142.01 57.2348 142.627C56.7255 143.005 54.8583 144.219 54.4433 144.617C54.0095 145.055 54.0661 145.374 54.1227 145.792C54.1793 145.991 54.5188 147.881 56.2163 149.991C57.2536 151.265 58.7436 152.599 60.9315 153.713C61.0636 153.773 61.2333 153.873 61.3276 153.992C61.3842 154.092 61.4219 154.171 61.4031 154.251C61.3842 154.45 61.2145 154.649 60.8372 154.868Z" fill="#161616"/>
<rect x="300.077" y="0.5" width="88.4025" height="88.4025" rx="44.2012" fill="white" stroke="#D8DEE5"/>
<path d="M352.905 28.47V33.6957H349.627C348.43 33.6957 347.623 33.9332 347.205 34.4083C346.788 34.8833 346.579 35.5959 346.579 36.546V40.2872H352.696L351.882 46.1463H346.579V61.1702H340.191V46.1463H334.867V40.2872H340.191V35.972C340.191 33.5175 340.914 31.614 342.362 30.2613C343.809 28.9087 345.737 28.2324 348.145 28.2324C350.191 28.2324 351.777 28.3116 352.905 28.47Z" fill="#161616"/>
<rect x="200.479" y="100.098" width="88.4025" height="88.4025" rx="44.2012" fill="white" stroke="#D8DEE5"/>
<path d="M249.838 146.39C250.028 146.39 250.741 146.71 251.978 147.349C253.215 147.988 253.87 148.372 253.943 148.503C253.972 148.576 253.987 148.685 253.987 148.83C253.987 149.309 253.862 149.861 253.614 150.485C253.379 151.052 252.86 151.527 252.055 151.912C251.25 152.297 250.503 152.49 249.816 152.49C248.981 152.49 247.591 152.039 245.644 151.139C244.21 150.485 242.966 149.629 241.912 148.568C240.858 147.508 239.775 146.165 238.663 144.538C237.609 142.984 237.089 141.576 237.104 140.312V140.138C237.148 138.816 237.689 137.669 238.729 136.696C239.08 136.377 239.46 136.217 239.87 136.217C239.958 136.217 240.09 136.228 240.265 136.249C240.441 136.271 240.58 136.282 240.683 136.282C240.961 136.282 241.155 136.329 241.264 136.424C241.374 136.518 241.488 136.718 241.605 137.023C241.722 137.313 241.963 137.952 242.329 138.94C242.695 139.927 242.878 140.472 242.878 140.574C242.878 140.879 242.625 141.296 242.121 141.826C241.616 142.356 241.363 142.694 241.363 142.839C241.363 142.941 241.4 143.05 241.473 143.166C241.971 144.226 242.717 145.221 243.712 146.15C244.532 146.92 245.637 147.653 247.027 148.351C247.203 148.452 247.364 148.503 247.51 148.503C247.73 148.503 248.125 148.151 248.696 147.447C249.267 146.742 249.647 146.39 249.838 146.39ZM245.381 157.936C247.24 157.936 249.022 157.573 250.727 156.846C252.432 156.12 253.899 155.147 255.129 153.927C256.358 152.707 257.339 151.252 258.07 149.56C258.802 147.868 259.168 146.1 259.168 144.255C259.168 142.411 258.802 140.643 258.07 138.951C257.339 137.259 256.358 135.803 255.129 134.583C253.899 133.363 252.432 132.39 250.727 131.664C249.022 130.938 247.24 130.575 245.381 130.575C243.522 130.575 241.74 130.938 240.035 131.664C238.33 132.39 236.862 133.363 235.633 134.583C234.404 135.803 233.423 137.259 232.691 138.951C231.959 140.643 231.593 142.411 231.593 144.255C231.593 147.203 232.472 149.875 234.228 152.272L232.494 157.347L237.806 155.67C240.119 157.18 242.644 157.936 245.381 157.936ZM245.381 127.83C247.62 127.83 249.761 128.266 251.802 129.137C253.844 130.008 255.604 131.177 257.082 132.644C258.561 134.111 259.739 135.857 260.617 137.883C261.495 139.909 261.934 142.033 261.934 144.255C261.934 146.477 261.495 148.601 260.617 150.627C259.739 152.653 258.561 154.399 257.082 155.866C255.604 157.333 253.844 158.502 251.802 159.373C249.761 160.245 247.62 160.68 245.381 160.68C242.527 160.68 239.856 159.998 237.367 158.633L228.212 161.552L231.198 152.729C229.617 150.144 228.827 147.319 228.827 144.255C228.827 142.033 229.266 139.909 230.144 137.883C231.023 135.857 232.201 134.111 233.679 132.644C235.157 131.177 236.917 130.008 238.959 129.137C241.001 128.266 243.141 127.83 245.381 127.83Z" fill="#161616"/>
<rect x="100.098" y="100.098" width="88.4025" height="88.4025" rx="44.2012" fill="white" stroke="#D8DEE5"/>
<path d="M158.538 137.219C158.56 137.527 158.56 137.836 158.56 138.145C158.56 147.563 151.322 158.415 138.093 158.415C134.017 158.415 130.231 157.246 127.046 155.217C127.625 155.283 128.182 155.305 128.784 155.305C132.146 155.305 135.242 154.18 137.714 152.261C134.552 152.195 131.902 150.144 130.988 147.321C131.434 147.387 131.879 147.431 132.347 147.431C132.993 147.431 133.639 147.343 134.24 147.188C130.944 146.526 128.472 143.659 128.472 140.196V140.108C129.429 140.637 130.543 140.968 131.723 141.012C129.786 139.733 128.516 137.549 128.516 135.079C128.516 133.756 128.873 132.543 129.496 131.484C133.037 135.807 138.36 138.63 144.329 138.939C144.218 138.41 144.151 137.858 144.151 137.307C144.151 133.381 147.358 130.183 151.344 130.183C153.416 130.183 155.286 131.043 156.601 132.432C158.226 132.124 159.785 131.528 161.166 130.712C160.632 132.366 159.496 133.756 158.004 134.638C159.451 134.484 160.854 134.087 162.146 133.535C161.166 134.947 159.941 136.204 158.538 137.219Z" fill="#161616"/>
<rect x="100.098" y="0.5" width="88.4025" height="88.4025" rx="44.2012" fill="white" stroke="#D8DEE5"/>
<path d="M143.927 35.05C138.693 35.05 134.471 39.359 134.471 44.7012C134.471 50.0434 138.693 54.3524 143.927 54.3524C149.161 54.3524 153.383 50.0434 153.383 44.7012C153.383 39.359 149.161 35.05 143.927 35.05ZM143.927 50.9758C140.544 50.9758 137.779 48.1619 137.779 44.7012C137.779 41.2405 140.536 38.4267 143.927 38.4267C147.317 38.4267 150.074 41.2405 150.074 44.7012C150.074 48.1619 147.309 50.9758 143.927 50.9758ZM155.975 34.6552C155.975 35.9068 154.988 36.9063 153.77 36.9063C152.543 36.9063 151.564 35.8984 151.564 34.6552C151.564 33.412 152.552 32.4041 153.77 32.4041C154.988 32.4041 155.975 33.412 155.975 34.6552ZM162.238 36.9399C162.098 33.9244 161.423 31.2533 159.259 29.0526C157.103 26.8519 154.486 26.1631 151.531 26.0119C148.486 25.8355 139.359 25.8355 136.314 26.0119C133.368 26.1547 130.751 26.8435 128.586 29.0442C126.422 31.2449 125.755 33.916 125.607 36.9315C125.434 40.0394 125.434 49.3546 125.607 52.4625C125.747 55.478 126.422 58.1491 128.586 60.3498C130.751 62.5505 133.36 63.2393 136.314 63.3905C139.359 63.5669 148.486 63.5669 151.531 63.3905C154.486 63.2477 157.103 62.5589 159.259 60.3498C161.415 58.1491 162.09 55.478 162.238 52.4625C162.411 49.3546 162.411 40.0478 162.238 36.9399ZM158.304 55.7972C157.662 57.4435 156.42 58.7119 154.798 59.3755C152.371 60.3582 146.61 60.1314 143.927 60.1314C141.244 60.1314 135.475 60.3498 133.055 59.3755C131.442 58.7203 130.199 57.4519 129.549 55.7972C128.586 53.3193 128.809 47.4395 128.809 44.7012C128.809 41.9629 128.595 36.0747 129.549 33.6052C130.191 31.9589 131.434 30.6906 133.055 30.027C135.483 29.0442 141.244 29.271 143.927 29.271C146.61 29.271 152.379 29.0526 154.798 30.027C156.411 30.6822 157.654 31.9505 158.304 33.6052C159.267 36.0831 159.045 41.9629 159.045 44.7012C159.045 47.4395 159.267 53.3277 158.304 55.7972Z" fill="#161616"/>
<rect x="0.500488" y="0.5" width="88.4025" height="88.4025" rx="44.2012" fill="white" stroke="#D8DEE5"/>
<path d="M60.3864 41.7793C57.3028 41.7869 54.2949 40.7982 51.7874 38.953V51.8223C51.7866 54.2059 51.078 56.5323 49.7563 58.4907C48.4346 60.449 46.563 61.9458 44.3915 62.7809C42.2201 63.6161 39.8524 63.7498 37.605 63.1642C35.3577 62.5786 33.3378 61.3016 31.8154 59.5039C30.2931 57.7062 29.3409 55.4735 29.0861 53.1044C28.8313 50.7353 29.2861 48.3427 30.3896 46.2465C31.4932 44.1503 33.1929 42.4504 35.2616 41.3742C37.3302 40.298 39.6691 39.8967 41.9656 40.224V46.6968C40.9147 46.3569 39.7863 46.3672 38.7414 46.726C37.6965 47.0849 36.7887 47.774 36.1475 48.6949C35.5063 49.6159 35.1645 50.7216 35.171 51.8541C35.1775 52.9866 35.5319 54.0881 36.1836 55.0012C36.8353 55.9144 37.751 56.5924 38.7999 56.9386C39.8488 57.2847 40.9773 57.2813 42.0242 56.9288C43.0711 56.5762 43.9829 55.8926 44.6293 54.9756C45.2758 54.0585 45.6239 52.9549 45.6238 51.8223V26.6641H51.7874C51.7832 27.1992 51.8268 27.7336 51.9177 28.2605C52.1319 29.4367 52.5772 30.5557 53.2265 31.5489C53.8757 32.5421 54.7152 33.3888 55.6936 34.037C57.0856 34.9833 58.7176 35.4876 60.3864 35.4872V41.7793Z" fill="#161616"/>
<rect x="300.077" y="100.098" width="88.4025" height="88.4025" rx="44.2012" fill="white" stroke="#D8DEE5"/>
<path d="M349.794 134.824H358.795V137.017H349.794V134.824ZM340.774 143.501C342.764 142.545 343.806 141.091 343.806 138.843C343.806 134.398 340.512 133.32 336.708 133.32H326.24V155.632H337.002C341.036 155.632 344.821 153.683 344.821 149.152C344.821 146.352 343.504 144.281 340.774 143.501ZM331.122 137.126H335.702C337.466 137.126 339.05 137.62 339.05 139.677C339.05 141.571 337.818 142.332 336.072 142.332H331.122V137.126ZM336.334 151.844H331.118V145.699H336.438C338.585 145.699 339.944 146.601 339.944 148.885C339.944 151.132 338.324 151.844 336.334 151.844ZM362.315 147.788C362.315 143.008 359.531 139.025 354.495 139.025C349.6 139.025 346.27 142.727 346.27 147.58C346.27 152.609 349.424 156.062 354.495 156.062C358.335 156.062 360.821 154.327 362.017 150.625H358.123C357.699 152.007 355.975 152.732 354.635 152.732C352.045 152.732 350.692 151.209 350.692 148.622H362.283C362.297 148.355 362.315 148.074 362.315 147.788ZM350.692 145.822C350.831 143.696 352.244 142.369 354.355 142.369C356.575 142.369 357.685 143.678 357.879 145.822H350.692Z" fill="#161616"/>
</svg>
