<svg xmlns="http://www.w3.org/2000/svg" viewBox="0 0 441.54 423.42"><defs><style>.cls-1{fill:#f5f5f5;}.cls-2{fill:#e0e0e0;}.cls-3{fill:#ebebeb;}.cls-4{fill:#263238;}.cls-5{fill:#e8505b;}.cls-6{fill:#145413;}.cls-7,.cls-8{opacity:0.1;}.cls-11,.cls-8{fill:#6c55f9;}.cls-12,.cls-9{opacity:0.3;}.cls-10{opacity:0.4;}.cls-13{fill:#ffbe9d;}.cls-14{fill:#fff;}.cls-15{fill:#eb996e;}.cls-16{fill:#455a64;}.cls-17{fill:#fafafa;}</style></defs><g id="Camada_2" data-name="Camada 2"><g id="Background_Complete" data-name="Background Complete"><path class="cls-1" d="M249.21,421.37c-17.23-8.16-24.11-27.55-26.54-45.62-.41-3-1.27-6.12-.29-9s4-5.24,6.9-4.43c2.41.67,3.82,3.1,5.43,5a17.78,17.78,0,0,0,8.17,5.53c2.07.67,4.54.87,6.25-.48,2.34-1.87,2-5.5,1.52-8.47q-1.47-8.34-2.93-16.66a28.26,28.26,0,0,1-.59-9c.45-3,2.05-6,4.75-7.24s6.49-.24,7.58,2.58a26.88,26.88,0,0,1,.72,3.7c.29,1.23,1.1,2.5,2.33,2.64s2.3-.9,3.05-1.92c2.57-3.53,4-7.76,5.3-11.95s2.52-8.46,4.76-12.22,5.66-7,9.89-8,9.23.9,11,4.92.06,8.7-2,12.55a67.69,67.69,0,0,1-11.63,15.56A5.58,5.58,0,0,0,281,341.8c-.32,2.1,1.9,3.75,4,4.07,2.34.37,4.72-.27,7.09-.39s5.07.48,6.32,2.53c1.73,2.84-.28,6.47-2.43,9a57.47,57.47,0,0,1-15.23,12.6c-2.06,1.18-4.25,2.27-5.76,4.11s-2.12,4.71-.7,6.63,4.29,2.13,6.51,1.31,4.07-2.41,6.13-3.61c3.83-2.24,9.17-2.85,12.4.25a9.55,9.55,0,0,1,2.41,8.18,21.93,21.93,0,0,1-3.27,8.13,58.16,58.16,0,0,1-21.58,21.35c-9,4.91-17.61,7.29-27.64,5.43"/><path class="cls-2" d="M251.94,409.33a270.44,270.44,0,0,1,5.74-30.57l1.92-7.94c.63-2.6,1.26-5.18,2-7.67a134.38,134.38,0,0,1,5.25-14c1.89-4.39,3.84-8.48,5.69-12.29s3.66-7.33,5.44-10.47a108.37,108.37,0,0,1,9.48-14.16c1.25-1.58,2.26-2.77,2.95-3.57l.79-.9c.19-.2.28-.3.29-.3a1.68,1.68,0,0,1-.24.34c-.19.23-.44.54-.75.94-.67.82-1.65,2-2.87,3.63a114.58,114.58,0,0,0-9.31,14.22c-1.75,3.14-3.53,6.66-5.37,10.48s-3.76,7.91-5.63,12.28a135.52,135.52,0,0,0-5.2,14c-.77,2.47-1.39,5-2,7.64l-1.92,7.93a280.34,280.34,0,0,0-5.77,30.5"/><path class="cls-2" d="M261.79,363.1a5.24,5.24,0,0,1-.51-1.22c-.29-.8-.68-2-1.14-3.41-.93-2.9-2.07-7-3.31-11.41s-2.43-8.49-3.4-11.37c-.48-1.44-.88-2.6-1.16-3.4a7.14,7.14,0,0,1-.39-1.26,5,5,0,0,1,.59,1.18c.35.78.81,1.92,1.33,3.35,1.07,2.85,2.33,6.87,3.57,11.34s2.3,8.4,3.14,11.45c.39,1.38.72,2.53,1,3.46A5.67,5.67,0,0,1,261.79,363.1Z"/><path class="cls-2" d="M298.92,349.45a8.13,8.13,0,0,1-1.49.44c-1,.26-2.38.62-4.1,1.12-3.45,1-8.16,2.48-13.29,4.38s-9.7,3.82-13,5.31c-1.64.73-2.95,1.36-3.86,1.78a6.92,6.92,0,0,1-1.43.62,8.74,8.74,0,0,1,1.34-.81c.87-.49,2.16-1.17,3.78-2,3.23-1.59,7.79-3.57,12.93-5.48a138.19,138.19,0,0,1,13.39-4.24c1.74-.45,3.16-.75,4.15-.94A8.66,8.66,0,0,1,298.92,349.45Z"/><path class="cls-2" d="M252.29,408.54a2.21,2.21,0,0,1-.34-.42l-.89-1.28c-.77-1.11-1.84-2.75-3.13-4.79-2.6-4.08-6-9.83-9.67-16.22s-7-12.17-9.53-16.3l-3-4.88-.8-1.33a2.36,2.36,0,0,1-.25-.49s.13.14.34.43.54.76.89,1.27c.77,1.11,1.84,2.75,3.14,4.79,2.59,4.08,6,9.83,9.67,16.23s7,12.16,9.52,16.29l3,4.88c.32.54.59,1,.81,1.34A2,2,0,0,1,252.29,408.54Z"/><path class="cls-2" d="M300.47,383.5s-.15.12-.47.29l-1.39.75-5.16,2.69c-4.36,2.27-10.33,5.48-16.93,9s-12.62,6.71-17,8.9c-2.21,1.09-4,2-5.24,2.53l-1.45.65a2,2,0,0,1-.52.19,2.28,2.28,0,0,1,.47-.29l1.4-.75,5.16-2.69c4.35-2.27,10.33-5.48,16.93-9s12.62-6.71,17-8.9c2.2-1.09,4-1.95,5.24-2.53l1.44-.65A2.1,2.1,0,0,1,300.47,383.5Z"/><path class="cls-3" d="M124.17,206.73s-11.88,1.65-5.21,27.67,12.33,39.44,12.33,39.44.89,5.89-3.86,5.71-14.44-4-17.72,1.09c-3.41,5.31-.43,11.72,7,18.43s23.24,22,24.66,23.38,2.46,4.25-.8,4.65-26.38-2.32-27,8.73,23.2,26.32,25.77,28,3,3.07,2.4,4.56-8.26-.15-14.87-.65-14.36.07-14.19,6.48,12.68,22.6,49.19,34.63l17.28,4.47,12.77-12.58c25.7-28.58,28.51-48.85,25.48-54.49s-10-2.3-15.54,1.43-11.34,9-12.58,7.95-1.56-2.38-.18-5.15,14.47-27.86,8.43-37.14-24.76,4.57-27.79,5.85-3.53-1.76-3-3.63,6.65-23,9.78-32.56,2.54-16.56-3.06-19.48c-5.4-2.82-11.89,5.34-15.93,7.86s-6.18-3-6.18-3-1.75-14.45-8.9-40.34-18.53-21.26-18.53-21.26"/><path class="cls-2" d="M179.14,417.66c-5.17-19-13.79-53-21.35-82.18S143.38,280,138.31,260.9c-2.55-9.51-4.61-17.22-6-22.57-.7-2.65-1.25-4.71-1.63-6.14-.18-.68-.32-1.22-.41-1.6s-.13-.55-.13-.55.07.18.18.54.27.9.47,1.58c.4,1.42,1,3.48,1.73,6.11,1.5,5.31,3.62,13,6.2,22.53,5.18,19,12.1,45.4,19.65,74.54s16.11,63.16,21.19,82.22"/><path class="cls-2" d="M123,286.58a6.07,6.07,0,0,1,1.14.61c.71.42,1.73,1.06,3,1.86,2.49,1.61,5.88,3.91,9.57,6.53l9.43,6.72,2.86,2a6,6,0,0,1,1,.78,5,5,0,0,1-1.14-.6c-.72-.42-1.73-1.06-3-1.88-2.47-1.63-5.83-4-9.52-6.59l-9.47-6.65-2.88-2A5.87,5.87,0,0,1,123,286.58Z"/><path class="cls-2" d="M151.49,304.26c-.13-.09,4.32-7.28,9.93-16.07s10.28-15.84,10.41-15.76-4.32,7.27-9.94,16.06S151.62,304.34,151.49,304.26Z"/><path class="cls-2" d="M161.07,349.53a5.49,5.49,0,0,1,1-.91l2.69-2.36c2.28-2,5.4-4.76,8.74-7.94s6.28-6.15,8.38-8.33l2.49-2.57a6.78,6.78,0,0,1,1-.9,6.28,6.28,0,0,1-.81,1.05c-.54.65-1.35,1.57-2.36,2.69-2,2.25-4.93,5.28-8.29,8.46s-6.52,5.92-8.86,7.84c-1.18.95-2.14,1.72-2.82,2.22A5.48,5.48,0,0,1,161.07,349.53Z"/><path class="cls-2" d="M131.82,339.21a4.61,4.61,0,0,1,1.18.28l3.17,1c2.66.85,6.33,2.06,10.37,3.43s7.69,2.64,10.32,3.58l3.11,1.15a4.53,4.53,0,0,1,1.11.49,5,5,0,0,1-1.18-.29l-3.16-1c-2.67-.85-6.34-2.06-10.38-3.42s-7.69-2.64-10.32-3.59l-3.11-1.14A5.4,5.4,0,0,1,131.82,339.21Z"/><path class="cls-2" d="M135.2,380.25a9.06,9.06,0,0,1,1.51.38l4.06,1.24c3.42,1.07,8.13,2.59,13.33,4.29s9.89,3.28,13.28,4.44l4,1.41a7.91,7.91,0,0,1,1.45.59,8.8,8.8,0,0,1-1.51-.38L167.26,391c-3.42-1.07-8.14-2.59-13.34-4.29s-9.88-3.28-13.27-4.44l-4-1.41A7.56,7.56,0,0,1,135.2,380.25Z"/><path class="cls-2" d="M172,392.05a8.94,8.94,0,0,1,1.17-1.19l3.31-3.11c2.79-2.64,6.64-6.29,10.76-10.44s7.78-8,10.4-10.79l3.1-3.32a10.62,10.62,0,0,1,1.19-1.18,9.54,9.54,0,0,1-1,1.32c-.68.83-1.7,2-3,3.44-2.55,2.88-6.15,6.77-10.29,10.93s-8,7.76-10.89,10.32c-1.44,1.28-2.61,2.3-3.43,3A9.54,9.54,0,0,1,172,392.05Z"/><path class="cls-1" d="M72.57,51.56l-9.76-3.05s-2.55,8.19-11.12,5.68a8.27,8.27,0,0,1-6.07-7.42,9.17,9.17,0,0,1,3.16-7.69c2.51-2.21,6.91-3.56,13.12-.35l6.87-22-9.65-3-4,12.89S40.47,25.88,35.82,40.8c-4.45,14.27,7.31,21.57,12.79,23.28C52.8,65.39,67.38,68.83,72.57,51.56Z"/><rect class="cls-1" x="61.61" y="1.31" width="10.26" height="9.58" transform="translate(128.63 31.8) rotate(-162.67)"/><path class="cls-3" d="M99.51,26.71l3.9-1a3.44,3.44,0,0,1,2.53-4.24,3.27,3.27,0,0,1,3.6,1.21,3.63,3.63,0,0,1,.55,3.24c-.37,1.27-1.56,2.64-4.32,2.88l2.33,8.81,3.86-1L110.6,31.4a7.8,7.8,0,0,0,3.47-8.81c-1.5-5.71-7-5.69-9.17-5.11C103.22,17.92,97.61,19.84,99.51,26.71Z"/><rect class="cls-3" x="108.98" y="38.82" width="4.06" height="3.79" transform="matrix(0.97, -0.26, 0.26, 0.97, -6.71, 29.66)"/><path class="cls-3" d="M422.31,127.92l3.8,1.38a3.45,3.45,0,0,1,4.5-2.05,3.28,3.28,0,0,1,2.26,3,3.6,3.6,0,0,1-1.38,3c-1,.83-2.79,1.29-5.19-.09l-3.11,8.57,3.76,1.36,1.82-5a7.82,7.82,0,0,0,7.87-5.26c2-5.56-2.5-8.66-4.64-9.43C430.37,122.81,424.67,121.19,422.31,127.92Z"/><rect class="cls-3" x="421.78" y="144.08" width="4.06" height="3.79" transform="translate(75.06 -135.62) rotate(19.91)"/><path class="cls-1" d="M19,171.45l8-3.1s-2.6-6.75,4.37-9.58a7,7,0,0,1,7.9,1.73,7.73,7.73,0,0,1,1.94,6.73c-.5,2.78-2.7,6-8.49,7.1l7,18.14,7.95-3.07-4.09-10.62s10-7.18,5.3-19.47c-4.53-11.76-16.13-10.43-20.64-8.69C24.85,152,13.41,157.32,19,171.45Z"/><rect class="cls-1" x="42.36" y="194.39" width="8.65" height="8.08" transform="translate(-68.21 30.05) rotate(-21.07)"/><path class="cls-1" d="M425.44,202l-5.7,2.2s1.85,4.79-3.09,6.79a4.93,4.93,0,0,1-5.6-1.23,5.47,5.47,0,0,1-1.38-4.77c.36-2,1.92-4.23,6-5l-4.95-12.85-5.64,2.17,2.9,7.53a11.79,11.79,0,0,0-3.76,13.79c3.21,8.34,11.43,7.39,14.63,6.16C421.32,215.77,429.42,212,425.44,202Z"/><rect class="cls-1" x="402.78" y="179.97" width="6.13" height="5.72" transform="translate(850.29 207.55) rotate(158.93)"/></g><g id="Floor"><path class="cls-4" d="M441.54,423.09c0,.14-98.85.26-220.76.26S0,423.23,0,423.09s98.83-.26,220.78-.26S441.54,422.94,441.54,423.09Z"/></g><g id="Plant"><path class="cls-5" d="M63.41,397.12c1-3.68-1.46-7.37-4.17-10s-5.93-5.06-7.34-8.59c-2.28-5.71.79-13.11-3.1-17.88-2.29-2.81-6.39-3.75-8.42-6.74a15.49,15.49,0,0,1-1.83-5.36A54.33,54.33,0,0,0,25,323.2a47.26,47.26,0,0,0,5.31,24.39c1.58,3,3.51,5.93,4,9.27.85,5.44-2.18,11-.85,16.37,1.53,6.1,8.38,10.18,8.71,16.46.27,5.31-4.36,10-4,15.28a14.21,14.21,0,0,0,2.36,6.3c4.11,6.82,10.14,11.53,19.28,11.37l11.2.39Z"/><path class="cls-6" d="M63.41,397.12c1-3.68-1.46-7.37-4.17-10s-5.93-5.06-7.34-8.59c-2.28-5.71.79-13.11-3.1-17.88-2.29-2.81-6.39-3.75-8.42-6.74a15.49,15.49,0,0,1-1.83-5.36A54.33,54.33,0,0,0,25,323.2a47.26,47.26,0,0,0,5.31,24.39c1.58,3,3.51,5.93,4,9.27.85,5.44-2.18,11-.85,16.37,1.53,6.1,8.38,10.18,8.71,16.46.27,5.31-4.36,10-4,15.28a14.21,14.21,0,0,0,2.36,6.3c4.11,6.82,10.14,11.53,19.28,11.37l11.2.39Z"/><path class="cls-4" d="M73.31,423.33a8.89,8.89,0,0,0,3.09-.07,18.48,18.48,0,0,0,3.64-.91,15.44,15.44,0,0,0,4.49-2.47,6.19,6.19,0,0,0,1.85-2.46,12.15,12.15,0,0,0,.53-3.34,32.81,32.81,0,0,1,.26-3.63,10.11,10.11,0,0,1,1.36-3.6c1.33-2.32,3.52-4.51,4.23-7.66s.21-6.45-.31-9.82-1-7,.26-10.52,3.66-6.66,4.89-10.61.65-8.27.91-12.5a16.64,16.64,0,0,1,1.46-6.22c.9-2,2.16-3.85,3.14-5.94,2-4.22,2.34-9,2.88-13.68q.41-3.54.81-7.16a34.74,34.74,0,0,1,1.24-7.16,62.6,62.6,0,0,1,2.68-6.93A23.15,23.15,0,0,0,112,305a36.26,36.26,0,0,0,.36-3.85,44.71,44.71,0,0,0-.3-7.75c-.3-2.58-.77-5.15-1-7.74,0-.15,0-.3,0-.44l0-.52-.46.23a17.29,17.29,0,0,0-6,5.09,27.38,27.38,0,0,0-3.7,6.82c-1.88,4.81-2.55,9.86-3.49,14.67s-2.14,9.54-4.6,13.54c-1.23,2-2.71,3.81-4,5.76a15.72,15.72,0,0,0-2.78,6.38c-.66,4.74,2,8.9,1.4,13.09a14.38,14.38,0,0,1-2,5.81c-1,1.79-2.21,3.45-3.35,5.12a32.76,32.76,0,0,0-3,5.17A16.22,16.22,0,0,0,77.49,372c-.27,3.78.27,7.36,0,10.74a24.82,24.82,0,0,1-2.76,9.2c-1.36,2.76-2.87,5.25-4.13,7.66-.63,1.21-1.22,2.39-1.7,3.57a17.87,17.87,0,0,0-1,3.54,22.21,22.21,0,0,0-.08,6.39,16.16,16.16,0,0,0,3.2,8.15,8.27,8.27,0,0,0,.91,1,4.55,4.55,0,0,0,.73.62c.42.31.64.45.64.45a14.14,14.14,0,0,1-2.16-2.15,16,16,0,0,1-3-8.09,22.08,22.08,0,0,1,.14-6.3,17.7,17.7,0,0,1,1-3.46c.48-1.15,1.07-2.32,1.71-3.52,1.27-2.39,2.79-4.87,4.18-7.65A25.32,25.32,0,0,0,78,382.8c.29-3.45-.23-7.05.05-10.74a16,16,0,0,1,1.35-5.42,31.91,31.91,0,0,1,3-5.06c1.13-1.66,2.34-3.33,3.38-5.15a15.11,15.11,0,0,0,2.14-6.05c.54-4.47-2-8.66-1.38-13.06a15.2,15.2,0,0,1,2.69-6.1c1.28-1.91,2.77-3.74,4-5.78,2.55-4.11,3.78-8.94,4.71-13.77s1.63-9.83,3.46-14.54a27.15,27.15,0,0,1,3.61-6.65,16.56,16.56,0,0,1,5.77-4.87l-.51-.29c0,.14,0,.3,0,.45.28,2.62.75,5.19,1.05,7.74a44.51,44.51,0,0,1,.29,7.64,34.45,34.45,0,0,1-.34,3.73,21.18,21.18,0,0,1-1.26,3.49,64,64,0,0,0-2.69,7,35.63,35.63,0,0,0-1.27,7.28c-.26,2.41-.53,4.8-.79,7.16-.53,4.71-.89,9.41-2.8,13.48-1,2-2.2,3.9-3.13,5.95a17.25,17.25,0,0,0-1.5,6.45c-.25,4.32.31,8.54-.85,12.37s-3.61,7-4.84,10.6-.78,7.43-.24,10.78,1.08,6.65.36,9.63-2.78,5.18-4.12,7.57a10.32,10.32,0,0,0-1.39,3.74,31.79,31.79,0,0,0-.24,3.67,11.54,11.54,0,0,1-.47,3.25,6,6,0,0,1-1.74,2.36A15.51,15.51,0,0,1,80,422.15a19.78,19.78,0,0,1-3.59,1,15,15,0,0,1-2.27.22C73.58,423.32,73.31,423.33,73.31,423.33Z"/><path class="cls-4" d="M108.69,291.41a2.3,2.3,0,0,0-.1.34c-.07.27-.15.6-.25,1-.22.88-.48,2.21-.91,3.88s-1.45,3.53-2.32,5.85a83.47,83.47,0,0,0-2.66,7.94c-.86,3-1.61,6.3-2.4,9.85s-1.64,7.35-3.59,10.94c-.92,1.82-1.95,3.66-2.77,5.67a26.24,26.24,0,0,0-1.61,6.43,128.29,128.29,0,0,1-2.42,13.54c-2.24,9.18-4.38,17.92-6.33,25.88L78,403.84c-1.48,6-2.68,10.82-3.52,14.24-.39,1.64-.7,2.94-.92,3.88-.09.41-.17.75-.22,1a1.56,1.56,0,0,0-.06.35s.06-.11.13-.33.17-.6.29-1c.25-.94.61-2.22,1-3.85.9-3.41,2.17-8.24,3.74-14.18s3.4-13.15,5.45-21.07S88.1,366.2,90.36,357a125.14,125.14,0,0,0,2.41-13.6,26.06,26.06,0,0,1,1.56-6.27c.79-2,1.81-3.8,2.72-5.63,2-3.66,2.79-7.58,3.58-11.11s1.49-6.87,2.31-9.85,1.68-5.63,2.54-7.93,1.81-4.21,2.22-5.92.61-3,.78-3.92q.1-.62.18-1C108.69,291.54,108.71,291.42,108.69,291.41Z"/><path class="cls-6" d="M75.29,423.36c7.31-4.34,9.41-17.54,6.36-25.48s-8.39-15.2-9.21-23.67c-.63-6.51,1.5-13.19,0-19.55-2-8.59-10.43-15.24-10.33-24.07,0-4.95,2.87-9.61,2.65-14.56-.28-6.07-4.94-10.88-7.82-16.23-4.42-8.18-4.71-17.86-6.22-27s-5-19-13.14-23.51c-1.2,7.79-3.25,13.12-2.6,23.68.23,3.79,4.63,11,5.23,19.35.36,5,.6,9.93.91,14.9s.61,9.76,2.34,14.28c1.33,3.47,3.46,6.61,4.45,10.19,1.85,6.74-.59,14,.91,20.85,1.27,5.78,5.27,10.75,6.09,16.61,1.15,8.23-4.18,16.78-1.46,24.64,1.36,3.89,4.56,7,5.47,11.05.71,3.12-.06,6.42.58,9.56,1,5.05,10.67,9,15.81,8.66"/><path class="cls-4" d="M39.58,257a2.43,2.43,0,0,0,0,.44c0,.33.1.75.17,1.28.16,1.13.35,2.78.73,4.91s1.52,4.57,2.4,7.49,1.86,6.26,2.68,10,1.54,7.91,2.27,12.38,1.53,9.34,3.75,14c1,2.34,2.18,4.68,3,7.17a32.05,32.05,0,0,1,1.54,7.91,160.8,160.8,0,0,0,2.15,17l6.31,32.54c2,10,3.89,18.95,5.45,26.51s2.84,13.59,3.73,17.86c.45,2.06.8,3.69,1,4.84.12.53.22.94.29,1.26a2.16,2.16,0,0,0,.12.42,1.74,1.74,0,0,0-.05-.43c0-.33-.13-.75-.22-1.27-.22-1.17-.53-2.8-.92-4.88-.83-4.27-2-10.38-3.5-17.9S67.29,382,65.3,372s-4-21-6.25-32.53a162,162,0,0,1-2.16-17,32.73,32.73,0,0,0-1.59-8.06c-.89-2.55-2.06-4.9-3.08-7.22-2.21-4.58-3-9.37-3.77-13.82S47,284.77,46.09,281s-1.82-7.12-2.8-10-2.07-5.32-2.5-7.42-.66-3.76-.87-4.87l-.24-1.27A1.84,1.84,0,0,0,39.58,257Z"/></g><g id="Speech_Bubble" data-name="Speech Bubble"><path class="cls-5" d="M392.25,48.09h-4a3.38,3.38,0,0,1-3.47,3.4,3.23,3.23,0,0,1-3.12-2.05,3.56,3.56,0,0,1,.29-3.23c.67-1.11,2.15-2.12,4.83-1.65v-9h-3.93v5.26a7.69,7.69,0,0,0-5.52,7.51c0,5.82,5.22,7.18,7.45,7.18C386.5,55.53,392.32,55.11,392.25,48.09Z"/><rect class="cls-5" x="382.81" y="30" width="3.99" height="3.73" transform="translate(769.61 63.74) rotate(180)"/><path class="cls-4" d="M414.05,42.76a3.8,3.8,0,0,0,0-.5c0-.37,0-.86-.05-1.48,0-.33,0-.69,0-1.09s-.12-.84-.19-1.31-.14-1-.22-1.52-.27-1.1-.42-1.7a27.53,27.53,0,0,0-3.6-8.26,29.57,29.57,0,0,0-8.31-8.53,29.87,29.87,0,0,0-13.58-4.84,29.33,29.33,0,0,0-4-.08c-.67,0-1.36,0-2,.13l-2.05.31a29.14,29.14,0,0,0-8.12,2.77,31.19,31.19,0,0,0-7.3,5.3,30.4,30.4,0,0,0-5.49,7.65,27.66,27.66,0,0,0-2.86,9.31,18.72,18.72,0,0,0-.21,2.49,21,21,0,0,0,0,2.51,29.46,29.46,0,0,0,4.85,15l0-.3q-2.08,5.21-4.09,10.2l-.25.6.63-.17,10.91-3-.27-.05a29.21,29.21,0,0,0,12.46,5.44,26.56,26.56,0,0,0,6.38.4,19.47,19.47,0,0,0,3.07-.29l1.49-.23c.49-.09,1-.24,1.45-.36a29.21,29.21,0,0,0,16.59-11.38,27.83,27.83,0,0,0,3.57-6.77c.19-.53.37-1,.55-1.53s.25-1,.36-1.45.23-.9.33-1.32.13-.84.19-1.22c.09-.77.23-1.45.26-2s0-1.09.05-1.5,0-.68,0-.92a1.5,1.5,0,0,0,0-.31,1.16,1.16,0,0,0-.05.31c0,.24,0,.54-.07.91s-.06.91-.1,1.49-.19,1.26-.31,2A29,29,0,0,1,392,70.69c-.47.11-.94.26-1.42.35l-1.47.22a21.31,21.31,0,0,1-3,.27,26.12,26.12,0,0,1-6.26-.42,28.6,28.6,0,0,1-12.19-5.37l-.12-.09-.15,0-10.91,3,.39.43c1.33-3.32,2.7-6.73,4.1-10.2l.07-.16-.1-.14a29.13,29.13,0,0,1-4.12-9.79,30.51,30.51,0,0,1-.62-4.92,20,20,0,0,1,.05-2.45,17.7,17.7,0,0,1,.2-2.43,27,27,0,0,1,2.79-9.11,30,30,0,0,1,5.35-7.49,30.72,30.72,0,0,1,7.14-5.21,28.91,28.91,0,0,1,7.94-2.74l2-.31c.66-.1,1.34-.09,2-.14a29.91,29.91,0,0,1,3.91.06,28.86,28.86,0,0,1,21.63,13,27.8,27.8,0,0,1,3.66,8.12l.45,1.68c.09.54.17,1,.25,1.51s.15.9.21,1.29.05.76.08,1.09c.05.62.08,1.11.11,1.47A3.3,3.3,0,0,0,414.05,42.76Z"/></g><g id="Question_Mark" data-name="Question Mark"><path class="cls-5" d="M115.84,160.7h57.75s0-48.49,50.39-49.36c26.18-.45,39.75,16.69,45.26,29.83,6.4,15.25,4.46,32.63-4.11,46.77-9.8,16.15-30.9,32.38-69.82,25.52l-.37,128.67h57.11V265.86s80.09-20.71,80.09-109c0-84.45-68.29-102.7-105-103.87-20.43-.65-27.83-1.53-53.09,2.06C141.87,59.65,115.16,97,115.84,160.7Z"/><rect class="cls-5" x="194.78" y="368.96" width="57.96" height="54.13"/><rect class="cls-7" x="194.78" y="368.96" width="57.96" height="54.13"/><path class="cls-8" d="M115.84,160.7h57.75s0-48.49,50.39-49.36c26.18-.45,39.75,16.69,45.26,29.83,6.4,15.25,4.46,32.63-4.11,46.77-9.8,16.15-30.9,32.38-69.82,25.52l-.37,128.67h57.11V265.86s80.09-20.71,80.09-109c0-84.45-68.29-102.7-105-103.87-20.43-.65-27.83-1.53-53.09,2.06C141.87,59.65,115.16,97,115.84,160.7Z"/><path class="cls-5" d="M91.92,160.7h57.75s0-48.49,50.39-49.36c26.17-.45,39.74,16.69,45.26,29.83,6.4,15.25,4.46,32.63-4.12,46.77-9.79,16.15-31.26,30.83-70.18,24V342.13h57.11V265.86s80.09-20.71,80.09-109c0-84.45-75.73-104.07-108.15-104.07C175.28,52.82,90.83,58.82,91.92,160.7Z"/><path class="cls-9" d="M91.92,160.7h57.75s0-48.49,50.39-49.36c26.17-.45,39.74,16.69,45.26,29.83,6.4,15.25,4.46,32.63-4.12,46.77-9.79,16.15-31.26,30.83-70.18,24V342.13h57.11V265.86s80.09-20.71,80.09-109c0-84.45-75.73-104.07-108.15-104.07C175.28,52.82,90.83,58.82,91.92,160.7Z"/><rect class="cls-5" x="170.86" y="368.96" width="57.96" height="54.13"/><rect class="cls-9" x="170.86" y="368.96" width="57.96" height="54.13"/><path class="cls-4" d="M206.58,111.61a5,5,0,0,1-.86,0c-.57,0-1.39-.19-2.46-.2a50.67,50.67,0,0,0-9.06.37,65.09,65.09,0,0,0-13.07,3.08,55.82,55.82,0,0,0-7.28,3.13,39.06,39.06,0,0,0-7.13,4.62,35.92,35.92,0,0,0-5.83,6.15,61.33,61.33,0,0,0-4.37,6.62,59,59,0,0,0-5.17,12.39,51,51,0,0,0-1.74,8.89c-.12,1.07-.15,1.9-.18,2.47a4.55,4.55,0,0,1-.08.86,5.8,5.8,0,0,1,0-.87,23.82,23.82,0,0,1,.08-2.47,46,46,0,0,1,1.59-9,57.6,57.6,0,0,1,5.1-12.52,60.92,60.92,0,0,1,4.39-6.7,35.73,35.73,0,0,1,5.9-6.25,38.71,38.71,0,0,1,7.22-4.66,54.63,54.63,0,0,1,7.36-3.13,62.82,62.82,0,0,1,13.19-3,46,46,0,0,1,9.11-.21,24.73,24.73,0,0,1,2.46.29A5.13,5.13,0,0,1,206.58,111.61Z"/><path class="cls-4" d="M293.6,101.3a1.33,1.33,0,0,1-.19-.23l-.5-.69c-.46-.65-1.1-1.55-1.9-2.7-.42-.58-.85-1.25-1.38-1.94l-1.8-2.19L285.76,91c-.75-.87-1.63-1.72-2.5-2.65s-1.79-1.92-2.81-2.88l-3.23-2.92c-.56-.5-1.11-1-1.71-1.52l-1.86-1.47c-1.27-1-2.53-2-3.9-3a124.7,124.7,0,0,0-18.93-11.17L245.55,63l-5.23-2c-1.7-.7-3.44-1.21-5.13-1.76s-3.32-1.13-5-1.52l-4.78-1.26c-1.55-.41-3.09-.65-4.56-1s-2.89-.64-4.28-.82l-4-.57c-2.53-.43-4.85-.52-6.87-.73-1-.07-2-.18-2.83-.22l-2.38-.07-3.3-.1-.86,0a1.36,1.36,0,0,1-.29,0l.29,0h4.16l2.39,0c.88,0,1.82.12,2.84.18,2,.18,4.36.24,6.89.65l4,.55c1.39.16,2.81.52,4.3.79s3,.54,4.58,1l4.8,1.24c1.66.38,3.3,1,5,1.51s3.43,1,5.15,1.75l5.25,2,5.3,2.39a122.56,122.56,0,0,1,19,11.26c1.38,1,2.64,2.07,3.91,3l1.86,1.49c.6.5,1.15,1,1.71,1.54l3.22,2.95c1,1,1.9,2,2.79,2.91s1.74,1.81,2.49,2.69l2,2.56,1.78,2.22c.51.7.94,1.38,1.34,2l1.82,2.76.47.72A1.32,1.32,0,0,1,293.6,101.3Z"/><path class="cls-4" d="M287.58,225.29a2.77,2.77,0,0,1-.43.6l-1.34,1.66c-.57.72-1.29,1.59-2.18,2.56s-1.84,2.12-3,3.29-2.4,2.5-3.81,3.83-2.94,2.74-4.57,4.2A136.78,136.78,0,0,1,261,250.15a133,133,0,0,1-12.14,7.38c-1.94,1-3.77,2-5.54,2.78s-3.41,1.56-4.94,2.2-2.92,1.17-4.14,1.64-2.29.84-3.17,1.12l-2,.66a6.65,6.65,0,0,1-.72.2,4,4,0,0,1,.68-.3l2-.75c.87-.31,1.93-.7,3.13-1.2s2.61-1,4.11-1.71,3.16-1.39,4.89-2.25,3.58-1.8,5.51-2.81c3.81-2.09,7.92-4.55,12.07-7.39s7.89-5.83,11.2-8.65c1.63-1.45,3.2-2.8,4.58-4.15s2.69-2.6,3.84-3.77,2.16-2.28,3.06-3.23,1.64-1.8,2.24-2.5l1.41-1.59A4.9,4.9,0,0,1,287.58,225.29Z"/><path class="cls-4" d="M227.12,337.6c-.15,0-.26-16.06-.26-35.87s.11-35.88.26-35.88.26,16.06.26,35.88S227.26,337.6,227.12,337.6Z"/><path class="cls-4" d="M229.32,419.42c-.14,0-.26-11.27-.26-25.18s.12-25.17.26-25.17.26,11.27.26,25.17S229.46,419.42,229.32,419.42Z"/></g><g id="Character"><path class="cls-5" d="M286.17,153c-1,2,2.73,3.63,4.88,4.28a19.37,19.37,0,0,0,6.71.47c3-.16,6.07-.44,8.66-1.92a13.79,13.79,0,0,0,5.22-5.86,40.62,40.62,0,0,0,2.65-7.49S290.66,144.06,286.17,153Z"/><g class="cls-10"><path class="cls-11" d="M286.17,153c-1,2,2.73,3.63,4.88,4.28a19.37,19.37,0,0,0,6.71.47c3-.16,6.07-.44,8.66-1.92a13.79,13.79,0,0,0,5.22-5.86,40.62,40.62,0,0,0,2.65-7.49S290.66,144.06,286.17,153Z"/></g><path class="cls-5" d="M352.91,146.62a22.61,22.61,0,0,0,13.34,4.19c2.27,0,4.68-.47,6.35-2,.77-.7,1.35-1.6,2.14-2.28.54-.46,1.17-.81,1.68-1.31a2.12,2.12,0,0,0,.73-1.89,3.93,3.93,0,0,0-1.38-2.21c-2.71-1.54-5.95-1.49-9.07-1.42a31.22,31.22,0,0,0-9.15,1.8c-2.42.81-4.95,2-6.18,4.2"/><g class="cls-10"><path class="cls-11" d="M377.15,143.33a4.11,4.11,0,0,0-1.77-2c-2.71-1.54-5.56-1.69-8.68-1.62a31.22,31.22,0,0,0-9.15,1.8c-2.42.81-4.95,2-6.18,4.2l1.54.92a22.61,22.61,0,0,0,13.34,4.19c2.27,0,4.68-.47,6.35-2,.77-.7,1.35-1.6,2.14-2.28.54-.46,1.17-.81,1.68-1.31A2.12,2.12,0,0,0,377.15,143.33Z"/></g><path class="cls-11" d="M306.79,182.52l49.85.65a.64.64,0,0,0,.62-.83l-5.85-18.24s.86-9.12,2.06-20.09c1.8-16.64,4.21-37.57,4.24-37.51-3.41-9.56-23.53-11.19-23.53-11.19l-22.93,1.37-.8-1.35-6.6,3.07a31.15,31.15,0,0,0-4.14,2.33c-4.36,2.92-14.86,9.6-16.78,17.06C278.51,135,286,154.28,286,154.28l4.82-3.76a33.4,33.4,0,0,1,3.82-2.55l9.66,25.88a4.6,4.6,0,0,0-2.1,3.33c-.08,2.09,1,4.62,4.59,5.34"/><g class="cls-12"><path d="M328.16,152c1.58-8.5.75-17.24-.09-25.84-2.77,7-2.67,15-5.6,21.94a9.12,9.12,0,0,0-.78,2.31,2.58,2.58,0,0,0,.67,2.26c.79.72,2,.33,3.05.2a11.46,11.46,0,0,0,2.75-.87"/></g><g class="cls-10"><path d="M309.8,171.67c4,1.4,8.26-1.19,12.49-1.65,2.8-.3,5.6.34,8.38.79a62.46,62.46,0,0,0,17,.41,6.46,6.46,0,0,0,2.5-.64,3,3,0,0,0,1.31-2.48c-9.42-1-18.83-1.55-28.25-2.51a17.82,17.82,0,0,0-7.06.22c-2.84.88-5,3.12-7,5.32"/></g><path class="cls-11" d="M375.72,140c-4.08-9.16-18.43-34.52-18.43-34.52l-11.11,13.93,2.59,27.35s5.87-6.55,22.28-6.68a8,8,0,0,1,6.1,3.22Z"/><path class="cls-4" d="M309,135.19a37.13,37.13,0,0,1-1.87-6,37.09,37.09,0,0,1-1.37-6.12,38.36,38.36,0,0,1,1.87,6A38.37,38.37,0,0,1,309,135.19Z"/><path class="cls-4" d="M345.34,117.59a6.31,6.31,0,0,1,1,.87,28,28,0,0,1,2.47,2.72A26.22,26.22,0,0,1,354.15,132a20.5,20.5,0,0,1,.32,6.7c-.26,2-.65,3.84-.9,5.37s-.42,2.75-.5,3.61a9.42,9.42,0,0,1-.14,1.34,5.53,5.53,0,0,1-.07-1.35,32.22,32.22,0,0,1,.34-3.66c.21-1.54.56-3.35.79-5.37a20.64,20.64,0,0,0-.35-6.53,27.43,27.43,0,0,0-5.09-10.74C346.7,118.94,345.26,117.66,345.34,117.59Z"/><path class="cls-4" d="M335.16,180.34a4.84,4.84,0,0,1-1.09.32,11.2,11.2,0,0,1-1.3.25c-.51.07-1.09.18-1.74.21a25.15,25.15,0,0,1-4.58,0,27.12,27.12,0,0,1-10.66-3.31,25.6,25.6,0,0,1-3.79-2.57,16.46,16.46,0,0,1-1.32-1.16,11.46,11.46,0,0,1-.93-1,4.87,4.87,0,0,1-.71-.87c.07-.07,1.15,1.13,3.19,2.69a27.78,27.78,0,0,0,3.79,2.44,31.8,31.8,0,0,0,5.08,2.14,32.32,32.32,0,0,0,5.4,1.12,28.29,28.29,0,0,0,4.5.13C333.57,180.62,335.14,180.24,335.16,180.34Z"/><path class="cls-4" d="M350.55,174.64a3.41,3.41,0,0,1,.39,1.46,9,9,0,0,1-.27,3.64,6.42,6.42,0,0,1-2,3.1c-.73.61-1.29.8-1.32.75s.45-.38,1.07-1a7.12,7.12,0,0,0,1.71-3C350.93,177,350.36,174.65,350.55,174.64Z"/><path class="cls-4" d="M347.84,178.16a5.42,5.42,0,0,1-2.14,5.52c-.11-.11.83-1.1,1.4-2.63S347.69,178.16,347.84,178.16Z"/><path class="cls-4" d="M338.92,145.25a20.36,20.36,0,0,1-1.78,2.56,19.63,19.63,0,0,1-1.75,2.58,9.32,9.32,0,0,1,3.53-5.14Z"/><path class="cls-4" d="M304.7,121c-.05.06-.84-.58-2.21-1.47a28.62,28.62,0,0,0-11.81-4.41,24,24,0,0,1-2.63-.34,9.28,9.28,0,0,1,2.67,0,23.88,23.88,0,0,1,12,4.47A8.91,8.91,0,0,1,304.7,121Z"/><path class="cls-4" d="M357.3,105.17a43.88,43.88,0,0,0-5.06,4.73,42.68,42.68,0,0,0-3.79,5.79,5.94,5.94,0,0,1,.69-1.94,19.37,19.37,0,0,1,2.71-4.18,19.72,19.72,0,0,1,3.65-3.38A6.29,6.29,0,0,1,357.3,105.17Z"/><path class="cls-4" d="M336.71,96.93a2.2,2.2,0,0,1,.22.47,8.57,8.57,0,0,1,.47,1.4,11.73,11.73,0,0,1,0,5.41,13.33,13.33,0,0,1-4.08,6.9,13.79,13.79,0,0,1-9.2,3.27,15.56,15.56,0,0,1-9.29-3.1,17.85,17.85,0,0,1-5.11-6.2,18.7,18.7,0,0,1-1.7-5.14,13.5,13.5,0,0,1-.18-1.47,1.53,1.53,0,0,1,0-.51c.05,0,.11.7.39,1.94a20.35,20.35,0,0,0,1.83,5,17.62,17.62,0,0,0,5.07,6,15.23,15.23,0,0,0,9,3,13.47,13.47,0,0,0,8.89-3.12,13.1,13.1,0,0,0,4-6.61,12.24,12.24,0,0,0,.18-5.29C337,97.6,336.65,97,336.71,96.93Z"/><g class="cls-12"><path d="M340.21,147c0-.5-.08-1.09-.52-1.34a1,1,0,0,0-.9,0,2.63,2.63,0,0,0-.73.6,12.36,12.36,0,0,0-2.67,4.27l4.9-.42C340.26,149.12,340.24,148.06,340.21,147Z"/></g><g class="cls-12"><path d="M356.48,136.72a16.15,16.15,0,0,0-3.55-7.6c2.11,6.92,1.4,10.83.21,15.56l.26-.66C354.76,141.25,356.86,139.52,356.48,136.72Z"/></g><polygon class="cls-13" points="346.69 369.18 343.7 414.03 324.2 413.8 321.13 367.17 346.69 369.18"/><path class="cls-5" d="M344.25,408.13v1.29s22,8.85,22.21,13l-43.66-.25.68-14.53C330,410.71,336.76,411.08,344.25,408.13Z"/><path class="cls-14" d="M327.88,412.33a1.79,1.79,0,0,0-1.24,2,1.72,1.72,0,0,0,2,1.25,1.87,1.87,0,0,0,1.3-2.15,1.77,1.77,0,0,0-2.22-1.07"/><path class="cls-4" d="M322.81,422.19l.16-3.5,41.79,1.53s1.94.85,1.71,2.22Z"/><path class="cls-4" d="M344.41,409.55c0,.21-1.07.3-2.13,1s-1.61,1.57-1.81,1.48.13-1.31,1.42-2.11S344.46,409.35,344.41,409.55Z"/><path class="cls-4" d="M349,411.47c0,.2-.88.56-1.61,1.46s-.94,1.85-1.15,1.84-.35-1.22.58-2.32S349,411.26,349,411.47Z"/><path class="cls-4" d="M351.55,417c-.2.05-.49-1,.07-2.18s1.55-1.63,1.64-1.45-.53.8-1,1.76S351.76,416.94,351.55,417Z"/><path class="cls-4" d="M343.13,41.17c1.13-2.8-.24-6.2-2.67-8a11.61,11.61,0,0,0-8.66-1.7,34.52,34.52,0,0,0-8.55,2.95,9.64,9.64,0,0,0-16.36,5.35,6.12,6.12,0,0,0-7.26,8l13.51,4.74,14.76,26a11.81,11.81,0,0,0,17.38-15.7,10.12,10.12,0,0,0,2.08-2.57,10.3,10.3,0,0,0,4.77-6.39C353.42,48.17,348.94,41.85,343.13,41.17Z"/><path class="cls-13" d="M334.18,95.31c-.83-4.22-1.42-7.12-1.41-7.09s8-3.1,7.42-14.24c-.27-5.53-2.39-14.26-4.34-21.35-1.77-6.37-7.71-13.41-14-11.37l-19,9.3c-1.92.61-2.25,2.41-1.8,4.37l0,1,7.41,30.65,3.13,13.71A11.58,11.58,0,0,0,324.49,109h0A11.57,11.57,0,0,0,334.18,95.31Z"/><path class="cls-4" d="M335.72,60a1.41,1.41,0,0,1-1,1.67,1.36,1.36,0,0,1-1.69-.94,1.43,1.43,0,0,1,1-1.68A1.36,1.36,0,0,1,335.72,60Z"/><path class="cls-4" d="M334.9,57.91c-.14.22-1.34-.34-2.83,0s-2.42,1.29-2.62,1.14,0-.43.41-.87A3.87,3.87,0,0,1,331.91,57a3.75,3.75,0,0,1,2.3.24C334.74,57.52,335,57.81,334.9,57.91Z"/><path class="cls-4" d="M321.25,63.36a1.41,1.41,0,0,1-1,1.67,1.35,1.35,0,0,1-1.69-1,1.42,1.42,0,0,1,1-1.67A1.35,1.35,0,0,1,321.25,63.36Z"/><path class="cls-4" d="M320.52,61.44c-.13.21-1.34-.34-2.83,0s-2.42,1.29-2.62,1.14,0-.42.42-.87a3.86,3.86,0,0,1,2-1.13,3.68,3.68,0,0,1,2.3.24C320.36,61,320.59,61.34,320.52,61.44Z"/><path class="cls-4" d="M328.05,70.84a10.22,10.22,0,0,1,2.32-.94c.38-.12.72-.27.73-.54a2,2,0,0,0-.49-1.08c-.55-.84-1.13-1.72-1.73-2.65-2.42-3.79-4.26-6.94-4.11-7s2.24,2.89,4.67,6.68c.58.94,1.15,1.83,1.68,2.68a2.2,2.2,0,0,1,.51,1.45,1,1,0,0,1-.51.69,2.74,2.74,0,0,1-.62.22A10.07,10.07,0,0,1,328.05,70.84Z"/><path class="cls-15" d="M332.77,88.22a28,28,0,0,1-15.24-.82s5.24,6.84,15.81,3.57Z"/><path class="cls-4" d="M320.8,59.32c-.1.42-1.63.41-3.37.84s-3.12,1.09-3.39.75c-.13-.16.07-.58.6-1a5.85,5.85,0,0,1,2.44-1.2,5.61,5.61,0,0,1,2.71,0C320.48,58.83,320.84,59.11,320.8,59.32Z"/><path class="cls-4" d="M334.33,53.18c-.23.4-1.52.31-3,.6s-2.64.79-3,.49c-.16-.14,0-.52.43-1a4.78,4.78,0,0,1,2.31-1.06,4.66,4.66,0,0,1,2.52.18C334.19,52.68,334.44,53,334.33,53.18Z"/><path class="cls-4" d="M307.48,43.39a7.53,7.53,0,0,0,10.21,5.48c1.59-.64,3.22-1.85,4.82-1.27s2.23,2.86,3.8,3.74c2.24,1.26,4.94-.92,7.5-.7,2,.16,3.51,1.7,5.06,2.94s3.7,2.28,5.44,1.34a22,22,0,0,0-1.77-4.81,7.52,7.52,0,0,0-3.66-3.47,27.85,27.85,0,0,1-2.67-.89c-1.8-.93-2.61-3-3.93-4.57a8.28,8.28,0,0,0-7-2.81c-2.17.23-4.22,1.32-6.4,1.22-1.61-.06-3.15-.78-4.75-.75-3.14,0-5.49,2.79-7.23,5.4"/><path class="cls-4" d="M318,45.68c-1.43-.1-4.38-.4-5.35-1.43a8.41,8.41,0,0,0-8-2.63,7,7,0,0,0-5,6.66,10,10,0,0,0-7.3,7.17,11.6,11.6,0,0,0,2.5,10.5,20.64,20.64,0,0,1,1.64,2.38,16.94,16.94,0,0,0-1.78,2.7c-2.28,5.06,3.92,7,3.92,7,0,3.41,3.15,3.39,5.16,3.38s3.12,5.35,4.69,5.14L306.85,70a1.87,1.87,0,0,0,.73.13c3.79.07,2.8-7.1,1.58-9A21.38,21.38,0,0,0,312,56.58a15.55,15.55,0,0,0,.15-7.67C313.47,48.72,318.65,45.73,318,45.68Z"/><path class="cls-13" d="M307.42,70.86a3.21,3.21,0,0,0-5.16-1.72c-1,.86-1.53,2.3-.93,4.71,1.62,6.44,7.75,3.49,7.71,3.3S308.11,73.52,307.42,70.86Z"/><path class="cls-15" d="M306.46,75.21s-.09.1-.26.24a1.15,1.15,0,0,1-.83.23c-.74-.08-1.59-1-1.91-2.17a3.92,3.92,0,0,1-.09-1.69,1.34,1.34,0,0,1,.63-1.07.6.6,0,0,1,.74.14c.13.16.12.3.16.3s.11-.14,0-.39a.72.72,0,0,0-.35-.34.84.84,0,0,0-.66,0,1.62,1.62,0,0,0-.92,1.29,3.81,3.81,0,0,0,.06,1.89c.36,1.29,1.33,2.34,2.33,2.37a1.18,1.18,0,0,0,1-.43C306.49,75.37,306.49,75.21,306.46,75.21Z"/><path class="cls-16" d="M342,61.87s.58-.45,1.4-1.46a9.49,9.49,0,0,0,2-5A9.29,9.29,0,0,0,345,51.7a8,8,0,0,0-2.29-3.55,9.39,9.39,0,0,0-9.19-1.79c-.3.1-.58.25-.86.37s-.53.3-.79.44l-.4.23V47a3.26,3.26,0,0,0-.81-2.11,5.31,5.31,0,0,0-1.85-1.32,6.9,6.9,0,0,0-4.29-.31c-2.76.63-5.1,1.89-7.31,2.14a7.07,7.07,0,0,1-5-1,4,4,0,0,1-1-1,2.08,2.08,0,0,1-.22-.43,5.69,5.69,0,0,0,1.31,1.27,7,7,0,0,0,4.83.81,17,17,0,0,0,3.36-1,31.31,31.31,0,0,1,3.9-1.28,8.81,8.81,0,0,1,2.26-.22,7,7,0,0,1,2.33.53,5.66,5.66,0,0,1,2,1.45A3.76,3.76,0,0,1,332,47l-.4-.22c.27-.16.54-.33.83-.48s.61-.29.93-.39A9.84,9.84,0,0,1,343,47.79a8.37,8.37,0,0,1,2.37,3.79,9.49,9.49,0,0,1,.32,3.87,9.33,9.33,0,0,1-2.23,5.09,6.49,6.49,0,0,1-1.11,1A2.65,2.65,0,0,1,342,61.87Z"/><path class="cls-16" d="M340.64,39.26a7,7,0,0,0-2.07-.71,5.46,5.46,0,0,0-2.47.22,4.91,4.91,0,0,0-2.53,1.84l-.25.36-.15-.4a7.51,7.51,0,0,0-6.1-4.53,9.76,9.76,0,0,0-5.86,1.69,26.66,26.66,0,0,1-4.65,2.41,7.33,7.33,0,0,1-3.52.41,4.71,4.71,0,0,1-.93-.25,1.28,1.28,0,0,1-.3-.16s.45.13,1.26.21a7.57,7.57,0,0,0,3.37-.56A27.9,27.9,0,0,0,321,37.32a15.84,15.84,0,0,1,2.8-1.37,7.68,7.68,0,0,1,3.36-.43,7.88,7.88,0,0,1,6.46,4.89l-.39,0a5.14,5.14,0,0,1,2.8-1.94,5.51,5.51,0,0,1,2.61-.13,4.75,4.75,0,0,1,1.57.6C340.5,39.1,340.65,39.24,340.64,39.26Z"/><path class="cls-5" d="M327.47,73.8a2.16,2.16,0,0,0-1.75-.51A2.56,2.56,0,0,0,324,74.52l0,0-.06.08,0,0a1.2,1.2,0,0,0-.19.76,1.81,1.81,0,0,0,1,1.35,2.3,2.3,0,0,0,2.62-.38A1.87,1.87,0,0,0,327.47,73.8Z"/><path class="cls-4" d="M328,76.91c-.07,0-.17-.3-.44-.72A3.3,3.3,0,0,0,326.14,75a3.23,3.23,0,0,0-1.85-.23c-.49.07-.79.2-.83.13s.21-.31.74-.49A2.95,2.95,0,0,1,327.86,76C328.07,76.55,328,76.9,328,76.91Z"/><path class="cls-5" d="M307.56,78.14c.05,0,.29.5-.09,1.26a2,2,0,0,1-3.78-.74,2.08,2.08,0,0,1,.41-1.38c.52-.67,1.11-.68,1.1-.62s-.44.22-.79.82a1.81,1.81,0,0,0-.24,1.13,1.62,1.62,0,0,0,.75,1.11,1.61,1.61,0,0,0,1.33.19,1.86,1.86,0,0,0,.91-.69A4,4,0,0,0,307.56,78.14Z"/><path class="cls-5" d="M304.19,77.76c.05,0,0,.34-.47.55a1.25,1.25,0,0,1-.83.08,1.29,1.29,0,0,1-.39-2.34c.41-.25.73-.15.72-.08s-.25.13-.5.37a1,1,0,0,0-.19,1.16,1,1,0,0,0,1.07.47C303.94,77.89,304.12,77.71,304.19,77.76Z"/><path class="cls-13" d="M315.18,166.57s24.76,1.44,39.4,1.57c11.33.11,16.39-2.91,18.65-10.19,1.91-6.11-2.18-17.84-2.18-17.84-7.67,0-12.4,1.09-17.33,3.41l1.31,5.36-39.92,3.44Z"/><path class="cls-15" d="M363.36,154.6a19.87,19.87,0,0,0-3.74-3.71,19.6,19.6,0,0,0-4.82-2.12,3.56,3.56,0,0,1,1.59.13,10.85,10.85,0,0,1,3.52,1.56,10.65,10.65,0,0,1,2.74,2.71A3.66,3.66,0,0,1,363.36,154.6Z"/><path class="cls-13" d="M306.12,143.48h0s-7.66,1.84-13.28,5.6l6,16.26c2,5.34,8.11,8,13,5.19,7.53-4.3,10.19-16.86,10.19-16.86l8.27-35.88-13.71-8.59-10.41,34.28"/><path class="cls-13" d="M316.53,109.2l.56-11.8-3.06-12c-.17-.66-.26-1.49.28-1.89a1.46,1.46,0,0,1,1.85.06C317,84.47,321,95,321,95s6.07-3.65,7.15-3.82,2.44,3.08,2.52,3.34a20.14,20.14,0,0,1,0,2.19s3.75.12,4.09.63a13.16,13.16,0,0,1,.43,3.18s1.59.51,1.84,1.72.77,3.18,0,3.61-2.33,1.31-2.33,1.31-.63,6.12-.8,6.67-3.68,4-3.68,4Z"/><path class="cls-15" d="M303.78,170.78s.38.21,1.15.46a7.82,7.82,0,0,0,3.54.28,9.77,9.77,0,0,0,5.11-2.36,23.67,23.67,0,0,0,4.76-6A27.45,27.45,0,0,0,320.2,159a41.88,41.88,0,0,0,1.28-4.8q1.17-5.06,2.53-10.85l6-25.63,0-.07.05,0c.69-.67,1.38-1.37,2.07-2.08.34-.36.68-.72,1-1.09.15-.19.32-.38.45-.57s.12-.36.17-.62c.27-2,.48-4.07.7-6.15V107l.12-.07,1.91-1.07c.14-.08.36-.19.45-.26a.55.55,0,0,0,.18-.33,3.28,3.28,0,0,0,0-1,15.17,15.17,0,0,0-.45-2.17,2.66,2.66,0,0,0-1.59-1.29l-.17-.06v-.18c0-.58-.06-1.17-.13-1.76a8.1,8.1,0,0,0-.13-.88,1.85,1.85,0,0,0-.11-.37c0-.07,0,0-.07-.06a1.26,1.26,0,0,0-.16-.07,18.08,18.08,0,0,0-3.67-.42h-.26v-.26c0-.61,0-1.3,0-2a2.1,2.1,0,0,0-.24-.67c-.1-.24-.22-.48-.34-.71A8.37,8.37,0,0,0,329,92a2,2,0,0,0-.5-.5.5.5,0,0,0-.54-.06,13.41,13.41,0,0,0-1.41.64c-1.86,1-3.68,2-5.45,3.09l-.27.16-.11-.28c-.94-2.37-1.88-4.71-2.8-7-.46-1.15-.91-2.29-1.37-3.43a1.43,1.43,0,0,0-1.1-1,1.12,1.12,0,0,0-1.3.48,1.18,1.18,0,0,0-.15.71c0,.23.14.56.21.84l.45,1.72c.3,1.14.6,2.28.89,3.4q.89,3.36,1.73,6.6v.07q-.3,6.16-.57,11.8v.05c-3.78,12.3-6.91,22.5-9.11,29.65l-2.57,8.25-.69,2.16c-.16.49-.26.74-.26.74s.06-.26.19-.76l.63-2.18c.58-1.93,1.41-4.73,2.46-8.28l8.94-29.7v0q.26-5.62.53-11.8v.07q-.86-3.22-1.75-6.6-.45-1.68-.9-3.39l-.45-1.73a6.25,6.25,0,0,1-.22-.9,1.66,1.66,0,0,1,.21-1,1.51,1.51,0,0,1,.81-.68,1.84,1.84,0,0,1,1,0,1.92,1.92,0,0,1,.91.46,2,2,0,0,1,.54.86c.46,1.14.91,2.28,1.38,3.43q1.38,3.47,2.8,7l-.37-.12c1.79-1.06,3.6-2.12,5.49-3.11a12.56,12.56,0,0,1,1.48-.68,1.26,1.26,0,0,1,.5-.07,1.15,1.15,0,0,1,.48.19,2.82,2.82,0,0,1,.63.61,8.64,8.64,0,0,1,.87,1.41c.13.24.25.49.36.74a2.57,2.57,0,0,1,.28.85c0,.71,0,1.37,0,2l-.25-.27a17.79,17.79,0,0,1,3.82.45,1.83,1.83,0,0,1,.26.11.69.69,0,0,1,.25.26,1.91,1.91,0,0,1,.17.51c.07.31.1.62.14.93.07.61.11,1.21.13,1.8l-.18-.23a3.14,3.14,0,0,1,1.91,1.58,15.33,15.33,0,0,1,.48,2.31,3.59,3.59,0,0,1,0,1.22,1.16,1.16,0,0,1-.37.62,4.79,4.79,0,0,1-.51.3l-1.91,1.07.13-.2c-.23,2.09-.44,4.15-.72,6.18l-.06.38a1,1,0,0,1-.18.44,6.27,6.27,0,0,1-.5.61c-.33.39-.68.75-1,1.11-.7.72-1.39,1.42-2.08,2.1l.06-.12c-2.2,9.28-4.24,17.9-6.07,25.61q-1.37,5.78-2.57,10.84a41.25,41.25,0,0,1-1.33,4.82,26.62,26.62,0,0,1-1.9,4.17,23.73,23.73,0,0,1-4.87,6.05,10,10,0,0,1-5.25,2.35,7.78,7.78,0,0,1-3.59-.37,5.21,5.21,0,0,1-.85-.38Z"/><path class="cls-15" d="M330.67,96.66c0,.08-.34.12-.87.14a10.05,10.05,0,0,0-2,.24,4,4,0,0,0-1.7.9c-.36.34-.52.63-.6.6s0-.38.33-.84a3.38,3.38,0,0,1,1.84-1.17,6,6,0,0,1,2.14-.1C330.35,96.5,330.67,96.59,330.67,96.66Z"/><path class="cls-15" d="M327.74,96.77c-.14,0-.15-.36,0-.69s.33-.55.46-.5.15.36,0,.69S327.87,96.82,327.74,96.77Z"/><path class="cls-15" d="M335.36,100.41a9.7,9.7,0,0,1-3,.41,2,2,0,0,0-1.65.79c-.27.41-.18.75-.26.77s-.32-.34-.07-.93a1.59,1.59,0,0,1,.71-.8,3.21,3.21,0,0,1,1.2-.35A8.3,8.3,0,0,1,335.36,100.41Z"/><path class="cls-15" d="M334.69,104c.14,0,.23.75.18,1.65s-.19,1.64-.33,1.63-.23-.74-.19-1.65S334.54,104,334.69,104Z"/><path class="cls-14" d="M338.85,130.94l.88-3.07a.84.84,0,0,1,1.41-.35l1.16,1.18.72-2.88a.84.84,0,0,1,1.57-.16l1.64,3.42Z"/><path class="cls-14" d="M346.24,130.39a13.33,13.33,0,0,1-3.53,1.14,13.53,13.53,0,0,1-3.66.64,13.73,13.73,0,0,1,3.53-1.15A13.32,13.32,0,0,1,346.24,130.39Z"/><path class="cls-14" d="M286.77,113.29s-.37.39-.89,1.19a10.12,10.12,0,0,0-1.35,3.78,26.72,26.72,0,0,0-.18,6c.11,2.26.29,4.75.57,7.35A128.79,128.79,0,0,0,287,144.82c.35,1.67.67,3,.9,4,.1.41.18.77.25,1.07s.08.38.08.38-.05-.13-.12-.37l-.29-1.06c-.25-.93-.59-2.28-1-4a119.08,119.08,0,0,1-2.17-13.23c-.28-2.61-.45-5.1-.55-7.36a26.9,26.9,0,0,1,.22-6,9.91,9.91,0,0,1,1.44-3.79A6.13,6.13,0,0,1,286.77,113.29Z"/><path class="cls-14" d="M307.82,99.7l-.23.12-.66.32c-.57.27-1.4.67-2.39,1.22a83.06,83.06,0,0,0-7.51,4.7c-2.86,2-5.39,3.81-7.24,5.13l-2.19,1.56-.61.41c-.14.09-.21.14-.22.13l.2-.16.58-.45,2.16-1.6c1.82-1.36,4.34-3.23,7.2-5.2a75.72,75.72,0,0,1,7.56-4.65c1-.53,1.84-.92,2.43-1.17l.68-.28A.77.77,0,0,1,307.82,99.7Z"/><path class="cls-14" d="M355.51,106.2s-.06,0-.17-.12l-.45-.39a17.06,17.06,0,0,0-1.75-1.31,34.92,34.92,0,0,0-6.43-3.25,64.68,64.68,0,0,0-6.85-2.28c-.89-.25-1.62-.43-2.12-.56l-.58-.14a.8.8,0,0,1-.2-.07s.07,0,.21,0l.58.1c.51.1,1.25.26,2.14.49a56.73,56.73,0,0,1,6.9,2.23,32.85,32.85,0,0,1,6.43,3.33A12.66,12.66,0,0,1,355.51,106.2Z"/><path class="cls-14" d="M308.1,182.54a2,2,0,0,1-.39-.14,6.29,6.29,0,0,1-1-.53,4.81,4.81,0,0,1-2.18-2.94,5.74,5.74,0,0,1,.39-3.66,4.54,4.54,0,0,1,.58-1c.16-.21.27-.31.28-.3a9.73,9.73,0,0,0-.72,1.33,5.83,5.83,0,0,0-.32,3.55,4.85,4.85,0,0,0,2.05,2.87C307.57,182.28,308.12,182.5,308.1,182.54Z"/><path class="cls-14" d="M304.92,171.71a4.26,4.26,0,0,1,.47,1.25,4.59,4.59,0,0,1,.28,1.32,8.36,8.36,0,0,1-.75-2.57Z"/><path class="cls-4" d="M318.44,395.91l30.5-.15-.55-105.46L348.1,183l-41.31-.51-7.43,14a50.39,50.39,0,0,0-5.71,18.15c-.52,4.84,3.11,20.65,4.38,24.67L309.4,275.4Z"/><path class="cls-4" d="M357.05,183.18l33.52,91.37a42.15,42.15,0,0,1-4.13,35.7L347.52,386.2l-21.88-27.37,32.56-68-28.7-46.51,4.83-61,13.52-.21Z"/><path class="cls-16" d="M345.32,213.79s0,.16.05.47.05.79.08,1.37c.07,1.24.16,3,.28,5.3.23,4.63.55,11.28.95,19.49s.83,18,1.33,28.9c.24,5.44.5,11.15.76,17.07.2,3,.11,6,.14,9s0,6.17,0,9.31c0,25.13.08,47.88.11,64.37,0,8.22,0,14.88,0,19.51,0,2.28,0,4.07,0,5.3,0,.59,0,1,0,1.38s0,.47,0,.47,0-.16,0-.47l0-1.38c0-1.23,0-3-.06-5.3,0-4.63-.08-11.29-.14-19.51-.07-16.49-.16-39.23-.26-64.36,0-3.14,0-6.25,0-9.31s.05-6.07-.14-9c-.25-5.92-.5-11.63-.73-17.07-.46-10.87-.87-20.67-1.22-28.9s-.59-14.86-.78-19.49c-.08-2.28-.14-4.07-.18-5.3,0-.59,0-1,0-1.38S345.32,213.79,345.32,213.79Z"/><path class="cls-16" d="M344.55,185a3.79,3.79,0,0,1,.22,1c.1.65.22,1.58.36,2.74.26,2.31.54,5.52.71,9.07s.16,6.77.11,9.1c0,1.16-.07,2.1-.12,2.75a3.5,3.5,0,0,1-.12,1,33.72,33.72,0,0,1-.13-3.76c0-2.33-.11-5.54-.26-9.08s-.39-6.74-.56-9.06A33.59,33.59,0,0,1,344.55,185Z"/><path class="cls-16" d="M337.83,187a2.38,2.38,0,0,0-.67,1.14,1.28,1.28,0,0,0,.38,1.22,1.46,1.46,0,0,0,1.5.27,1.43,1.43,0,0,0,.78-1.31,1.31,1.31,0,0,0-.67-1.09,2.5,2.5,0,0,0-1.31-.24s.1-.13.36-.2a1.59,1.59,0,0,1,1.12.11,1.66,1.66,0,0,1,1,1.39,1.79,1.79,0,0,1-3.09,1.41,1.65,1.65,0,0,1-.41-1.65,1.7,1.7,0,0,1,.64-.92C337.67,187,337.82,187,337.83,187Z"/><path class="cls-16" d="M321.83,185.23a2.84,2.84,0,0,1,.27,1,9.11,9.11,0,0,1,.09,2.72,10.89,10.89,0,0,1-1.15,3.88,10.31,10.31,0,0,1-7.82,5.61,11.07,11.07,0,0,1-4-.15,9.44,9.44,0,0,1-2.54-1,2.77,2.77,0,0,1-.82-.57,16.86,16.86,0,0,0,3.44,1.16,10.5,10.5,0,0,0,12.57-9A17.4,17.4,0,0,0,321.83,185.23Z"/><path class="cls-16" d="M361.07,194a4,4,0,0,1-1.92-.23,8.76,8.76,0,0,1-3.94-2.51,8.88,8.88,0,0,1-2.13-4.16,4.08,4.08,0,0,1,0-1.94c.1,0,.1.74.4,1.85a9.9,9.9,0,0,0,2.15,3.9,9.75,9.75,0,0,0,3.67,2.52C360.34,193.81,361.08,193.89,361.07,194Z"/><path class="cls-16" d="M373,292.49a6.28,6.28,0,0,1-1.77,1.4,8,8,0,0,1-2.27,1,5.46,5.46,0,0,1-3.07-.08,9.06,9.06,0,0,1-4.28-3.4,8.14,8.14,0,0,1-1.17-1.93,12.14,12.14,0,0,1,1.46,1.7,9.53,9.53,0,0,0,4.15,3.13,6.34,6.34,0,0,0,5-.74A20.58,20.58,0,0,1,373,292.49Z"/><path class="cls-16" d="M365.35,298.32a48.3,48.3,0,0,1-5.89-8.28,50.94,50.94,0,0,1,5.89,8.28Z"/><path class="cls-17" d="M314.1,217.33c-.14.06-.49-.52-.8-1.28s-.44-1.43-.31-1.48.49.52.8,1.28S314.23,217.28,314.1,217.33Z"/><path class="cls-17" d="M333.46,220.1c-.14,0-.26-.49-.26-1.11s.12-1.1.26-1.1.26.49.26,1.1S333.6,220.1,333.46,220.1Z"/><path class="cls-17" d="M325.5,230.61c-.14,0-.3-.6-.35-1.36s0-1.39.16-1.4.31.6.36,1.36S325.65,230.6,325.5,230.61Z"/><path class="cls-17" d="M311,238.36c-.12.08-.53-.28-1.07-.67s-1-.67-1-.81.67,0,1.27.39S311.08,238.28,311,238.36Z"/><path class="cls-17" d="M336.59,248.13c-.12-.08,0-.52.34-1s.65-.77.77-.69,0,.52-.34,1S336.71,248.21,336.59,248.13Z"/><path class="cls-17" d="M320.74,250.9c-.15,0-.27-.83-.27-1.85s.12-1.84.27-1.84.26.82.26,1.84S320.88,250.9,320.74,250.9Z"/><path class="cls-17" d="M315.59,262.11c-.08.12-.6-.12-1.16-.52s-.95-.83-.86-.95.6.12,1.16.53S315.68,262,315.59,262.11Z"/><path class="cls-17" d="M331.62,266c.05.13-.27.4-.73.6s-.88.27-.93.14.26-.41.72-.61S331.56,265.89,331.62,266Z"/><path class="cls-17" d="M320.74,284.27c-.13.07-.65-.71-1.16-1.72s-.82-1.9-.69-2,.65.7,1.16,1.72A4.45,4.45,0,0,1,320.74,284.27Z"/><path class="cls-17" d="M338.44,282.61c-.13-.06.1-.74.51-1.5s.84-1.33,1-1.26-.1.74-.5,1.5S338.56,282.68,338.44,282.61Z"/><path class="cls-17" d="M330.69,298.1c-.14,0-.13-.81-.29-1.75s-.39-1.68-.26-1.75.62.64.78,1.67S330.83,298.13,330.69,298.1Z"/><path class="cls-17" d="M322.39,307c-.1.09-.6-.28-1.11-.84s-.84-1.1-.73-1.19.61.28,1.12.84S322.5,306.86,322.39,307Z"/><path class="cls-17" d="M342.54,310.31c-.11-.1.26-.64.82-1.2s1.09-.94,1.19-.84-.27.64-.82,1.21S342.64,310.42,342.54,310.31Z"/><path class="cls-17" d="M331,323.56c-.14,0-.14-.78,0-1.7s.36-1.64.51-1.62.14.78,0,1.7S331.09,323.59,331,323.56Z"/><path class="cls-17" d="M323.16,330c-.13.08-.56-.44-1-1.15s-.65-1.34-.53-1.41.57.44,1,1.15S323.28,329.92,323.16,330Z"/><path class="cls-17" d="M341.93,338.11c.09.12-.42.62-1.13,1.13s-1.36.83-1.45.72.43-.63,1.14-1.14S341.85,338,341.93,338.11Z"/><path class="cls-17" d="M326.29,348.64c-.14-.05,0-.86.13-1.85s.05-1.82.2-1.84.41.81.32,1.89S326.42,348.69,326.29,348.64Z"/><path class="cls-17" d="M332.54,363.75c-.12.09-.54-.25-.94-.76s-.65-1-.54-1.08.54.25.94.76S332.65,363.66,332.54,363.75Z"/><path class="cls-17" d="M325.71,373.9c-.11.08-.66-.52-1.22-1.33s-.92-1.54-.8-1.63.66.52,1.22,1.33S325.83,373.81,325.71,373.9Z"/><path class="cls-17" d="M344.52,361.17c-.13-.05-.12-.42,0-.83s.38-.69.52-.64.12.42,0,.83S344.66,361.22,344.52,361.17Z"/><path class="cls-17" d="M336.23,385.33c-.14-.07.11-.78.31-1.67s.27-1.64.42-1.65.3.79.09,1.76S336.35,385.4,336.23,385.33Z"/><path class="cls-17" d="M341.62,230.78c-.13.06-.45-.35-.71-.9s-.37-1.06-.24-1.12.45.34.71.9S341.75,230.71,341.62,230.78Z"/><path class="cls-17" d="M327.74,199.63c.08.13-.62.69-1.37,1.49s-1.26,1.53-1.39,1.46.21-1,1-1.82S327.67,199.51,327.74,199.63Z"/><path class="cls-17" d="M340.1,199.26c-.15,0-.38-.56-.73-1.25s-.67-1.23-.56-1.33.65.34,1,1.1S340.24,199.24,340.1,199.26Z"/><path class="cls-17" d="M301.6,209.42c-.13,0,0-.71.31-1.48s.66-1.34.79-1.29,0,.72-.31,1.48S301.74,209.48,301.6,209.42Z"/><path class="cls-17" d="M302.85,224.53c-.09.11-.66-.22-1.28-.73s-1-1-.94-1.12.67.22,1.28.72S302.94,224.42,302.85,224.53Z"/><path class="cls-17" d="M328.11,187.65c-.13,0-.41-.32-.61-.83s-.26-1-.13-1,.41.32.61.83S328.24,187.59,328.11,187.65Z"/><path class="cls-17" d="M352.3,195c-.14,0-.13-.63,0-1.35s.39-1.26.53-1.23.13.63,0,1.34S352.44,195.06,352.3,195Z"/><path class="cls-17" d="M358,206.45c-.14,0,0-.8.4-1.66s.75-1.52.89-1.47,0,.8-.41,1.67S358.12,206.51,358,206.45Z"/><path class="cls-17" d="M353.93,215.68c-.13.06-.61-.63-1.06-1.55s-.73-1.71-.6-1.77.6.62,1.06,1.54S354.06,215.61,353.93,215.68Z"/><path class="cls-17" d="M362.6,224.9c-.14-.06,0-.63.21-1.3s.57-1.15.71-1.1,0,.63-.22,1.29S362.73,225,362.6,224.9Z"/><path class="cls-17" d="M354.85,233.93c-.12.08-.43-.19-.68-.6s-.36-.8-.24-.87.43.19.68.6S355,233.86,354.85,233.93Z"/><path class="cls-17" d="M356.5,252.56c-.1.1-.72-.4-1.39-1.11s-1.11-1.37-1-1.47.72.4,1.39,1.11S356.61,252.46,356.5,252.56Z"/><path class="cls-17" d="M366.65,241.86c-.11.09-.66-.42-1.22-1.13s-.92-1.36-.81-1.45.66.42,1.22,1.13S366.77,241.77,366.65,241.86Z"/><path class="cls-17" d="M372.22,256.63c-.13-.06.1-.81.51-1.68s.84-1.51,1-1.45-.09.81-.5,1.68S372.35,256.69,372.22,256.63Z"/><path class="cls-17" d="M360.38,268.78c-.12.08-.59-.47-1.23-1.06s-1.23-1-1.16-1.15.81.11,1.51.76S360.5,268.72,360.38,268.78Z"/><path class="cls-17" d="M361.12,281.32c0,.15-.5.26-1.11.26s-1.1-.11-1.1-.26.49-.26,1.1-.26S361.12,281.18,361.12,281.32Z"/><path class="cls-17" d="M373.29,277.82c-.13-.08.13-.7.32-1.49s.27-1.45.42-1.46.31.71.09,1.59S373.41,277.9,373.29,277.82Z"/><path class="cls-17" d="M385.38,282c-.13.05-.5-.65-.82-1.56s-.47-1.69-.34-1.74.51.66.83,1.57S385.52,282,385.38,282Z"/><path class="cls-17" d="M383.46,299.22c-.13-.06.18-.9.68-1.87s1-1.7,1.15-1.63-.18.9-.68,1.87S383.58,299.29,383.46,299.22Z"/><path class="cls-17" d="M372.42,309.33c-.13.06-.54-.64-.92-1.55s-.57-1.69-.43-1.74.54.64.92,1.55S372.55,309.28,372.42,309.33Z"/><path class="cls-17" d="M360.2,313.23c0,.14-.41.26-.92.26s-.93-.12-.93-.26.42-.26.93-.26S360.2,313.08,360.2,313.23Z"/><path class="cls-17" d="M367.21,329.27c-.14,0-.42-.55-.62-1.32s-.26-1.41-.12-1.45.41.55.62,1.32S367.34,329.23,367.21,329.27Z"/><path class="cls-17" d="M358.35,323.92c-.12-.07,0-.55.33-1.05s.66-.87.78-.79,0,.54-.33,1.05S358.48,324,358.35,323.92Z"/><path class="cls-17" d="M358.17,341.62c-.14,0-.34-.67-.44-1.53s-.07-1.58.07-1.6.34.67.44,1.54S358.31,341.61,358.17,341.62Z"/></g></g></svg>