<svg xmlns="http://www.w3.org/2000/svg" viewBox="0 0 730.14 738.02"><defs><style>.cls-1{fill:#e6fff9;}.cls-2{fill:#ff9981;}.cls-14,.cls-3{fill:#201600;}.cls-4{fill:#efefef;}.cls-5{fill:#48443e;}.cls-6{fill:#90c4b0;}.cls-7{fill:#e8cc56;}.cls-8{fill:#f7e28b;}.cls-9{fill:#ccae2f;}.cls-10{fill:#864f6f;}.cls-11{fill:#af7599;}.cls-12{fill:#3f2e39;}.cls-13{fill:#bfaa52;}.cls-14{opacity:0.18;}.cls-15{fill:#fcb1a2;}.cls-16{fill:#c15e4d;}</style></defs><g id="Camada_2" data-name="Camada 2"><g id="Ñëîé_2" data-name="Ñëîé 2"><path class="cls-1" d="M373.11,700.09c-36.5-.83-74.9-17.27-91.83-49.62-7.52-14.38-10.46-31-19.53-44.49-17.62-26.15-52.18-33-81.79-43.78a237,237,0,0,1-126.43-110C36.6,420.39,27.27,381.73,40.9,348.39c15.12-37,54.39-58.23,92.8-69.36s79.17-15.38,115.11-32.9C348.13,197.72,385,62.35,487.89,22.18c38-14.82,88.29-10.52,110.31,23.8,28.67,44.68-7.43,104.73,5.15,156.31,6.87,28.18,27.49,50.57,46.09,72.84,39.88,47.77,75.06,109,59.84,169.35-5.25,20.82-16.2,39.71-27.74,57.81-7.67,12-15.85,24.06-27,32.91-16.12,12.76-36.85,17.72-56.7,23.09-27.41,7.41-55.08,16.54-77.5,34-28.39,22.09-27.38,53.65-47.54,79.06C452.8,696.47,402.53,700.77,373.11,700.09Z"/><path class="cls-2" d="M447.27,126.54c5.74-6.4,11.9-12.87,19.91-16s18.38-1.83,23.37,5.16c2.33,3.25,3.24,7.33,3.5,11.33.87,13.6-5.14,26.64-11.69,38.59s-13.8,23.52-21,35.07c8.42-11.5,26.05-14.94,38.17-7.45s16.92,24.8,10.4,37.47c-7.48,14.52-27.22,23.08-27.23,39.42,10.11.39,19-7.72,29.08-7.82,13.28-.12,23,14.26,22.74,27.54s-7.46,25.31-14.62,36.49-14.71,22.9-15.71,36.15c8.15-9.55,25-7.88,33,1.74s7.94,24.33,2.06,35.41-16.52,19-27.82,24.42c-4,2-8.68,3.66-12.88,2.12-4.45-1.62-6.88-6.29-8.91-10.56l-46.38-98c-16.2-34.2-36.78-71.16-43.93-108.66C393.92,180.63,430,145.87,447.27,126.54Z"/><rect class="cls-3" x="272.79" y="121.18" width="252.85" height="480.68" rx="12.2" transform="translate(-86.32 128.44) rotate(-16.52)"/><path class="cls-4" d="M567,548.39,360.4,609.68a6.34,6.34,0,0,1-7.87-4.27l-120.2-405.3a6.32,6.32,0,0,1,4.27-7.87L443.23,131a6.35,6.35,0,0,1,7.88,4.27l120.2,405.3A6.32,6.32,0,0,1,567,548.39Z"/><rect class="cls-5" x="295.71" y="141.6" width="62.64" height="10.27" rx="3.75" transform="translate(-28.22 99.05) rotate(-16.52)"/><circle class="cls-5" cx="367.72" cy="134.66" r="5.13" transform="translate(109.35 428.94) rotate(-68.83)"/><path class="cls-6" d="M363.12,437.64c-9.41,2.38-18.41,6.34-27.94,8.24-8.41,1.68-17.08,1.71-25.65,1.09-14.7-1.07-29.46-4.1-42.53-10.92s-24.38-17.66-29.87-31.35a52.27,52.27,0,0,1,3.38-45.21c12.87-21.93,40.74-32.63,51.15-55.83,5-11.19,5.23-23.83,6.54-36,2.52-23.44,9.84-47.22,25.85-64.52s42-26.63,64.08-18.33c17.8,6.7,30.41,23.24,48,30.41,21.66,8.8,46.26,1.88,69.55,4,27.32,2.49,53.64,19.08,65.13,44s6.08,57.38-14.71,75.28C543.83,349,527.84,354,512.89,360.26S482.74,375.32,475.81,390c-10,21.26-4.62,62.89-38.92,64.27-10.52.42-19.57-8.4-28.58-12.61A67.27,67.27,0,0,0,363.12,437.64Z"/><path class="cls-7" d="M375.2,264.24a41.32,41.32,0,0,1,6.59,5.13,40.53,40.53,0,0,1,2.31,56c-.48.56-1,1.12-1.51,1.64a40.24,40.24,0,0,1-10.07,7.49c-.92.47-1.85.92-2.81,1.32A40.17,40.17,0,0,1,357.18,339h0a40.55,40.55,0,1,1,16.67-75.54C374.3,263.69,374.75,264,375.2,264.24Z"/><path class="cls-8" d="M351.61,258.1c.15,2,.31,4.23.48,6.6.07.93.13,1.89.2,2.86.58,8,1.24,17.3,1.91,26.76.05.8.1,1.62.16,2.43s.12,1.7.17,2.55.11,1.45.16,2.18c.72,10.25,1.4,20.28,1.92,28.44.06,1,.13,1.95.19,2.88.13,2.23.27,4.3.38,6.16h0a40.29,40.29,0,0,1-12.92-1l-1.71-7.07-.82-3.39-11.78-48.78-.81-3.41-1.84-7.58A40.6,40.6,0,0,1,351.61,258.1Z"/><path class="cls-8" d="M373.84,263.43c0,2.32-.07,4.83-.12,7.49q0,1.72-.06,3.54c-.18,10.45-.4,22.64-.61,34,0,1.18-.05,2.35-.06,3.52-.09,4.12-.17,8.1-.24,11.81,0,1.21-.05,2.39-.07,3.54-.06,2.56-.11,5-.16,7.14-.92.47-1.85.92-2.81,1.32l-.74-6.35-.37-3-1.93-16.36h0l-.12-1.13-.51-4.27L366,304l-1.29-10.91-.44-3.71-2.46-20.92-.36-3-.8-6.82A40.14,40.14,0,0,1,373.84,263.43Z"/><path class="cls-8" d="M381.79,269.37a40.64,40.64,0,0,1,6.55,8.19l-1.17,13.25h0l-1.92,21.7v0l-1.14,12.81c-.48.56-1,1.12-1.51,1.64,0-2.84-.07-6-.12-9.39,0-1.86-.05-3.77-.07-5.74,0,0,0,0,0,0-.11-8.55-.24-18-.37-26.88,0-2-.06-3.9-.08-5.79h0C381.89,275.73,381.84,272.42,381.79,269.37Z"/><path class="cls-9" d="M382.91,316.92a34.15,34.15,0,1,1-10.79-47.07A34.19,34.19,0,0,1,382.91,316.92Zm-55.42-34.76a31.27,31.27,0,1,0,43.11-9.88A31.31,31.31,0,0,0,327.49,282.16Z"/><path class="cls-9" d="M368,308.06a28.08,28.08,0,0,1-8.07,8.49,1.73,1.73,0,0,1-1.83-2.94c3.8-2.36,9.46-9.09,9.77-15.08a5.49,5.49,0,0,0-3.3-5.45c-2.29-.91-4.88.07-7.12,2.69l-1.12,1.34c-3.35,4.05-8.41,10.15-13.55,10.11a6.85,6.85,0,0,1-5.39-2.88,9,9,0,0,1-2-7.25c1.2-7.73,11.44-14.65,11.88-14.94a1.73,1.73,0,0,1,1.92,2.88c-2.62,1.75-9.58,7.43-10.38,12.6a5.55,5.55,0,0,0,1.24,4.55,3.54,3.54,0,0,0,2.72,1.58c3.49,0,8.1-5.53,10.86-8.85.41-.51.8-1,1.15-1.39,3.21-3.76,7.33-5.12,11-3.65a8.92,8.92,0,0,1,5.47,8.84A20.06,20.06,0,0,1,368,308.06Z"/><path class="cls-9" d="M373.86,311.24a1.91,1.91,0,0,1-2.64.61l-37.38-23.44a1.92,1.92,0,0,1,2-3.25l37.38,23.44A1.92,1.92,0,0,1,373.86,311.24Z"/><path class="cls-10" d="M541.41,281.56,583.2,422.47a16.48,16.48,0,0,1-11.08,20.42L342,511.16a16.48,16.48,0,0,1-20.42-11.08l-41.8-140.91a16.48,16.48,0,0,1,11.09-20.42L521,270.48A16.48,16.48,0,0,1,541.41,281.56Z"/><path class="cls-11" d="M453.29,290.56C431.09,334.89,370.69,455,342.53,511l-.58.18a16.48,16.48,0,0,1-20.42-11.08l-12.86-43.35L409.85,303.44Z"/><polygon class="cls-11" points="562.26 351.86 574.18 392.06 550.47 449.31 538.09 452.98 562.26 351.86"/><path class="cls-11" d="M541.41,281.56l3.31,11.16c-10.59,34.16-36.49,117.56-54,174.32L459,476.43l42.41-200.15,19.54-5.8A16.48,16.48,0,0,1,541.41,281.56Z"/><rect class="cls-12" x="327.67" y="442.75" width="51.99" height="13.69" rx="5" transform="translate(-113.24 119.12) rotate(-16.52)"/><rect class="cls-12" x="386.03" y="425.44" width="51.99" height="13.69" rx="5" transform="translate(-105.91 135) rotate(-16.52)"/><rect class="cls-12" x="444.38" y="408.14" width="51.99" height="13.69" rx="5" transform="translate(-98.58 150.88) rotate(-16.52)"/><rect class="cls-12" x="502.74" y="390.83" width="51.99" height="13.69" rx="5" transform="matrix(0.96, -0.28, 0.28, 0.96, -91.25, 166.76)"/><rect class="cls-13" x="478.49" y="291.66" width="49.98" height="34.69" rx="6.67" transform="translate(-67.08 155.92) rotate(-16.52)"/><path class="cls-7" d="M514.66,237.17a59.18,59.18,0,0,1,2.21,11.74,58,58,0,0,1-50.49,62.3c-1.06.14-2.12.26-3.17.33a57.87,57.87,0,0,1-17.91-1.49c-1.44-.36-2.86-.76-4.27-1.23a57.87,57.87,0,0,1-16.45-8.48h0A58,58,0,1,1,514,235C514.21,235.71,514.44,236.43,514.66,237.17Z"/><path class="cls-8" d="M495.14,208.24c-1.76,2.32-3.68,4.85-5.74,7.54-.81,1.07-1.64,2.16-2.5,3.27-6.9,9.09-15,19.74-23.27,30.54-.7.91-1.42,1.83-2.13,2.76l-2.22,2.9c-.62.84-1.27,1.66-1.89,2.49-8.94,11.69-17.7,23.1-24.86,32.36L430,293.36c-2,2.53-3.78,4.88-5.43,7h0a58,58,0,0,1-13-13.26l4.86-9.21,2.33-4.42,33.53-63.53,2.34-4.42,5.21-9.89A58.22,58.22,0,0,1,495.14,208.24Z"/><path class="cls-8" d="M514,235c-2.23,2.46-4.65,5.13-7.22,7.93-1.11,1.21-2.25,2.47-3.41,3.75-10.08,11.05-21.86,23.94-32.85,35.94l-3.39,3.72c-4,4.35-7.85,8.55-11.43,12.46l-3.43,3.74-6.93,7.51c-1.44-.36-2.86-.76-4.27-1.23l5.21-7.53,2.49-3.61,13.41-19.4h0l.94-1.34,3.49-5.06.5-.72L476,258.22l3-4.4L496.22,229l2.49-3.6,5.58-8.08A57.47,57.47,0,0,1,514,235Z"/><path class="cls-8" d="M516.87,248.91a57.68,57.68,0,0,1-.71,15L502.35,277h0l-22.6,21.49v0l-13.35,12.68c-1.06.14-2.12.26-3.17.33l8.75-10.2,5.36-6.22s0,0,0,0c8-9.28,16.78-19.56,25.05-29.21l5.38-6.29s0,0,0,0Z"/><path class="cls-9" d="M473.08,301a48.88,48.88,0,1,1,33-60.75A48.94,48.94,0,0,1,473.08,301Zm-26.63-89.78a44.77,44.77,0,1,0,55.65,30.19A44.83,44.83,0,0,0,446.45,211.25Z"/><path class="cls-9" d="M465.49,277.44a40.16,40.16,0,0,1-16.7,1.48,2.47,2.47,0,0,1,.82-4.88c6.31,1,18.76-.81,24.76-7a7.82,7.82,0,0,0,1.62-9c-1.6-3.15-5.31-4.56-10.19-3.86l-2.48.38c-7.42,1.17-18.64,2.94-24.11-2a9.84,9.84,0,0,1-3.07-8.19,12.88,12.88,0,0,1,4.76-9.64c8.6-7.17,26.15-4.9,26.89-4.8a2.48,2.48,0,1,1-.66,4.91c-4.46-.6-17.32-1.1-23.07,3.7a8,8,0,0,0-3,6.07,5.06,5.06,0,0,0,1.43,4.27c3.71,3.33,13.93,1.72,20,.76l2.55-.39c7-1,12.72,1.43,15.3,6.52a12.77,12.77,0,0,1-2.49,14.66C474.73,273.79,470.21,276,465.49,277.44Z"/><path class="cls-9" d="M468.73,286.37a2.74,2.74,0,0,1-3.4-1.85l-18-60.55a2.74,2.74,0,0,1,5.25-1.56l18,60.55A2.75,2.75,0,0,1,468.73,286.37Z"/><path class="cls-14" d="M277.4,219.8c14.74,35.52,6,76.68,16.27,113.74C298.2,349.81,306.35,365,310,381.48c3.25,14.58,2.89,29.68,3.62,44.6a306.06,306.06,0,0,0,12.15,71.7c7.14,24.17,17.38,48.13,17,73.33-.06,3.47-.4,7.16-2.53,9.9-2.75,3.55-7.93,4.5-12.27,3.33s-8-4.07-11.29-7.13C294.53,556.68,283.22,527,276,497.71c-8-32.74-11.82-66.35-15.59-99.86-6-53.6-12.06-107.37-11.44-161.3.08-7-2.13-36.22,4.93-39.69C263.24,192.27,274.93,213.83,277.4,219.8Z"/><path class="cls-2" d="M354.8,590.39c-.06,5.4-2,10.56-4,15.6L328,665c-4,10.35-36.86,72.72-66.08,71s-82.07-22.41-106.1-39.14c-13.24-9.23-35.27-24.52-39.41-41.32-3.69-15.09,16.52-29.64,24.74-40.46a284.5,284.5,0,0,0,48.78-100c23.83-91.12,1.93-192.12,31.41-280.09a224.62,224.62,0,0,1,9.55-24c3.47-7.45,8.19-15.39,16.11-17.6,5.07-1.42,10.48,0,14.92,2.93a23.1,23.1,0,0,1,5.12,4.64c4.78,5.86,6.87,13.44,8.11,20.9,4.82,29.27-2.07,59.31.63,88.87,3.54,38.83,23.37,74.57,28.71,113.2,2.09,15.24,1.92,30.78,5.11,45.82,2.71,12.77,7.77,24.88,12.81,36.92q13.83,32.94,27.62,65.91C352.45,578.25,354.89,584.19,354.8,590.39Z"/><path class="cls-15" d="M261.93,196.26a32.06,32.06,0,0,1-.77,4A159.93,159.93,0,0,1,250,230.73c-2.59,5.38-5.69,10.89-10.81,14s-12.79,2.7-16-2.34a13.86,13.86,0,0,1-1.8-7.41,224.62,224.62,0,0,1,9.55-24c3.47-7.45,8.19-15.39,16.11-17.6C252.08,191.91,257.49,193.3,261.93,196.26Z"/><path class="cls-16" d="M203.28,386.1a2.06,2.06,0,0,1-2.05-1.92c-2.94-44.93,7.2-104.67,7.3-105.27a2.05,2.05,0,1,1,4.05.69c-.1.6-10.16,59.87-7.25,104.31a2.06,2.06,0,0,1-1.92,2.18Z"/><path class="cls-16" d="M306.63,448.78h-.08a2,2,0,0,1-2-2.13c1.11-29-15.9-75.16-16.07-75.62a2.05,2.05,0,1,1,3.85-1.43c.72,1.92,17.46,47.39,16.32,77.21A2.05,2.05,0,0,1,306.63,448.78Z"/><path class="cls-16" d="M322.72,589.45a1.86,1.86,0,0,1-.52-.07,2,2,0,0,1-1.47-2.5c12-46.4-9.1-78.81-9.31-79.13a2.05,2.05,0,1,1,3.41-2.28c.92,1.37,22.39,34.18,9.87,82.44A2.06,2.06,0,0,1,322.72,589.45Z"/><path class="cls-16" d="M300.18,712.53a2.05,2.05,0,0,1-1.63-3.3c19.55-25.6,34.62-63.12,38.77-74l.19-.49a2.05,2.05,0,0,1,3.83,1.48l-.19.48c-4.2,11-19.45,49-39.33,75A2.07,2.07,0,0,1,300.18,712.53Z"/><path class="cls-3" d="M385.25,74.54a2.07,2.07,0,0,1-1.85-3c.3-.62,30.73-62,106.48-71.58a2.06,2.06,0,0,1,.51,4.08c-73.55,9.34-103,68.69-103.29,69.28A2,2,0,0,1,385.25,74.54Z"/><path class="cls-3" d="M634.11,105.58a1.72,1.72,0,0,1-.39,0,2.06,2.06,0,0,1-1.63-2.4c7.75-40-3.18-61.68-13.72-72.77-11.12-11.7-24.22-14.52-26.18-14.26a2,2,0,0,1-2.49-1.45,2.09,2.09,0,0,1,1.48-2.53c3.17-.87,16.38,2.49,27.64,12.92,12.6,11.67,25.82,34.82,17.31,78.86A2.05,2.05,0,0,1,634.11,105.58Z"/><path class="cls-3" d="M724.48,428.86a2,2,0,0,1-.54-.07,2.05,2.05,0,0,1-1.44-2.53c20.16-73.67-51.32-154-78.22-184.28-7.1-8-9.16-10.35-9.51-11.92a2.06,2.06,0,0,1,4-1c.51,1.11,4.43,5.52,8.58,10.18,27.32,30.71,99.87,112.27,79.12,188.1A2.06,2.06,0,0,1,724.48,428.86ZM638.77,229.12s0,0,0,.06A.13.13,0,0,0,638.77,229.12Z"/><path class="cls-3" d="M682.42,537.64a2,2,0,0,1-1.61-.77,2.05,2.05,0,0,1,.33-2.89c18.77-14.9,29.66-57.62,29.77-58.05a2.06,2.06,0,0,1,4,1c-.46,1.81-11.34,44.49-31.21,60.27A2,2,0,0,1,682.42,537.64Z"/><path class="cls-3" d="M116,702.21a2,2,0,0,1-1.27-.44c-25.79-20.35-26.13-44.38-21.86-61,4.76-18.52,16.92-33.37,22.8-34.35a2.06,2.06,0,0,1,.67,4.06c-3.44.57-15,13.67-19.49,31.31-4,15.4-3.63,37.74,20.43,56.71a2.06,2.06,0,0,1-1.28,3.67Z"/><path class="cls-3" d="M313.12,738a2.06,2.06,0,0,1-2-1.8c-.1-.75-2.21-18.57,9.14-27.54,8.12-6.42,20.79-6.46,37.67-.13a2.06,2.06,0,0,1-1.44,3.85c-15.44-5.8-26.77-6-33.69-.5-9.54,7.55-7.63,23.64-7.61,23.8a2,2,0,0,1-1.78,2.3Z"/><path class="cls-3" d="M34.36,469.71a2.05,2.05,0,0,1-1.64-.81C-2,423.17-9.14,377.7,11.58,333.75,22.33,310.94,40.34,289.48,65.11,270c1-.81,1.76-1.39,2.15-1.73A2.05,2.05,0,0,1,70,271.34c-.42.37-1.22,1-2.34,1.89C25.94,306-33.63,374.78,36,466.41a2.05,2.05,0,0,1-1.63,3.3Z"/><path class="cls-3" d="M181.22,231.85a23.59,23.59,0,0,1-3.35-.2,2.05,2.05,0,0,1,.58-4.06h0c.12,0,12.07,1.59,19.2-6.32,6.16-6.83,7.2-18.67,3.1-35.18-10.89-43.85,14.93-50.38,32-54.71,3-.76,5.85-1.48,8.17-2.31a2.05,2.05,0,1,1,1.39,3.86c-2.51.9-5.44,1.65-8.55,2.43-17.35,4.39-38.95,9.86-29,49.74,4.45,17.94,3.09,31.05-4.07,39C194.55,230.82,185.92,231.85,181.22,231.85Z"/></g></g></svg>