<svg xmlns="http://www.w3.org/2000/svg" xmlns:xlink="http://www.w3.org/1999/xlink" viewBox="0 0 225 274.41"><defs><style>.cls-1{fill:none;}.cls-2{isolation:isolate;}.cls-3{fill:#fff;}.cls-4{clip-path:url(#clip-path);}.cls-5{fill:#bfbfbf;}.cls-6{fill:#f0f0f0;}.cls-7{fill:#cdd2d6;mix-blend-mode:multiply;}.cls-8{fill:#d9d4f7;}.cls-9{fill:#464469;}.cls-10{fill:#3455b3;}.cls-11{fill:#519bf6;}.cls-12{fill:url(#linear-gradient);}.cls-13{fill:#64c95c;}.cls-14{fill:#d8d9dd;}.cls-15{fill:#c8ccd8;}.cls-16{fill:#305aff;}.cls-17{fill:#d9d9d9;}.cls-18{fill:#343343;}.cls-19{fill:#2e3442;}.cls-20{fill:#40485c;}.cls-21{fill:#dbe6ff;}.cls-22{fill:#e0e9ff;}.cls-23{fill:#ffadb7;}.cls-24{fill:#645f88;}.cls-25{fill:#bfc8de;}.cls-26{fill:#d4dff7;}.cls-27{fill:#202459;}.cls-28{fill:#ffae00;}.cls-29{fill:#ffbb29;}.cls-30{fill:#f59200;}.cls-31{fill:#ae835b;}.cls-32{fill:#c99a6b;}.cls-33{fill:#e8b687;}.cls-34{fill:#d66b00;}</style><clipPath id="clip-path"><path class="cls-1" d="M211.68,201.17l0,4.46c0,14.61-9.64,29.2-28.83,40.35-38.6,22.43-101.38,22.43-140.23,0-19.55-11.29-29.32-26.11-29.28-40.9l0-4.46c-.05,14.79,9.72,29.61,29.27,40.89,38.85,22.43,101.63,22.43,140.23,0C202,230.36,211.63,215.77,211.68,201.17Z"/></clipPath><linearGradient id="linear-gradient" x1="26.67" y1="182.73" x2="125.63" y2="11.33" gradientUnits="userSpaceOnUse"><stop offset="0" stop-color="#bac2d4"/><stop offset="0.14" stop-color="#a9b0c7"/><stop offset="0.17" stop-color="#a9b0c7"/><stop offset="0.6" stop-color="#a9b0c7"/><stop offset="0.62" stop-color="#c9ccd9"/><stop offset="0.63" stop-color="#e1e2e6"/><stop offset="0.64" stop-color="#eaeaeb"/><stop offset="0.65" stop-color="#e6e6e9"/><stop offset="0.66" stop-color="#d9dbe2"/><stop offset="0.66" stop-color="#c4c9d7"/><stop offset="0.67" stop-color="#bac0d1"/><stop offset="1" stop-color="#bdc4d2"/></linearGradient></defs><g class="cls-2"><g id="Camada_2" data-name="Camada 2"><g id="Layer_1" data-name="Layer 1"><rect class="cls-3" width="225" height="274.41"/><g class="cls-2"><g class="cls-2"><g class="cls-4"><g class="cls-2"><path class="cls-5" d="M211.68,201.17l0,4.46c0,14.61-9.64,29.2-28.83,40.35-38.6,22.43-101.38,22.43-140.23,0-19.55-11.29-29.32-26.11-29.28-40.9l0-4.46c-.05,14.79,9.72,29.61,29.27,40.89,38.85,22.43,101.63,22.43,140.23,0,19.19-11.15,28.79-25.74,28.84-40.34Z"/></g></g></g><path class="cls-6" d="M182.41,160.27c38.85,22.43,39.05,58.8.43,81.24s-101.38,22.43-140.23,0-39.06-58.79-.46-81.22S143.56,137.84,182.41,160.27Z"/></g><polygon class="cls-7" points="58.34 217.25 152.29 163.01 125.8 147.72 31.85 201.96 58.34 217.25"/><path class="cls-8" d="M129.47,16.93c3.85-2.23,7-.43,7,4l.38,134.5a15.29,15.29,0,0,1-7,12L67.94,203.21c-3.85,2.22-7,.44-7-4L60.57,64.73a15.33,15.33,0,0,1,6.94-12Z"/><path class="cls-9" d="M64.81,203.27c-1.85,0-3-1.51-3-4.05L61.46,64.73A14.35,14.35,0,0,1,68,53.47l62-35.77a5.62,5.62,0,0,1,2.68-.83c1.86,0,3,1.51,3,4l.39,134.5a14.38,14.38,0,0,1-6.5,11.26l-62,35.76A5.5,5.5,0,0,1,64.81,203.27Z"/><path class="cls-10" d="M127.9,21.58c3.12-1.8,5.66-.35,5.67,3.23l.37,131.2a12.44,12.44,0,0,1-5.63,9.76l-58.8,33.95c-3.11,1.8-5.66.35-5.67-3.24l-.37-131.2a12.45,12.45,0,0,1,5.63-9.76l9.12-5.26,4.17,1.9,32.25-18.62,4.14-6.7Z"/><path class="cls-11" d="M127.93,21.56c3.09-1.78,5.63-.32,5.64,3.25l.37,131.2a12.43,12.43,0,0,1-5.61,9.75l-58.82,34c-3.11,1.79-5.66.32-5.67-3.27L63.47,65.32a12.51,12.51,0,0,1,5.63-9.8l7.49-4.32A3.67,3.67,0,0,1,79.94,51l1.26.57a2.53,2.53,0,0,0,2.33-.11L112.4,34.84a10.31,10.31,0,0,0,3.6-3.5l2-3.26a5.77,5.77,0,0,1,2-2Z"/><path class="cls-12" d="M125.25,11.11c-1.27-.74-3-.64-5,.48L58.34,47.36a15.32,15.32,0,0,0-7,12l.38,134.5c0,2.2.78,3.75,2,4.47L63,203.7c-1.25-.73-2-2.28-2-4.48L60.57,64.73a15.33,15.33,0,0,1,6.94-12l62-35.76c1.93-1.12,3.69-1.22,4.95-.49Z"/><path class="cls-13" d="M78.18,43.54a2.27,2.27,0,0,1-.76.7l0,0L75,45.64l-3.6,2.08-1.77,1a4.43,4.43,0,0,1-4,.16l-1.14-.65c-1-.59-.89-1.63.29-2.31l7.76-4.49a4.46,4.46,0,0,1,4-.16l1.14.66a1.32,1.32,0,0,1,.51.44A1,1,0,0,1,78.18,43.54Z"/><path class="cls-14" d="M64.48,48.25l.08,0,.21-.13,7.76-4.48a4.46,4.46,0,0,1,4-.16l1.06.61c1-.68,1-1.63.08-2.18l-1.14-.66a4.46,4.46,0,0,0-4,.16l-7.76,4.49C63.59,46.62,63.46,47.66,64.48,48.25Z"/><path class="cls-14" d="M77.42,44.24l0,0L75,45.64l-3.6,2.08-.85-.5a1.16,1.16,0,0,1-.69-1h0a1.67,1.67,0,0,1,1-1.31l1.74-1a4.46,4.46,0,0,1,4-.17Z"/><path class="cls-14" d="M78.18,42.39v1.15a2.27,2.27,0,0,1-.76.7l0,0L75,45.64l-5.14.59V43.35Z"/><path class="cls-15" d="M71.46,44.87l-.93-.53c-1-.59-.89-1.63.29-2.32l1.74-1a4.46,4.46,0,0,1,4-.16l.93.53c1,.59.89,1.63-.29,2.31l-1.73,1A4.48,4.48,0,0,1,71.46,44.87Z"/><path class="cls-10" d="M127.9,21.58c3.12-1.8,5.66-.35,5.67,3.23l.37,131.2a12.44,12.44,0,0,1-5.63,9.76l-58.8,33.95c-3.11,1.8-5.66.35-5.67-3.24L63.47,65.29a12.44,12.44,0,0,1,5.63-9.76l9.12-5.27,4.17,1.9,32.25-18.62,4.14-6.69Z"/><path class="cls-16" d="M127.9,21.58c3.12-1.8,5.66-.35,5.67,3.23l.37,131.2a12.44,12.44,0,0,1-5.63,9.76l-58.8,33.95c-3.11,1.8-5.66.35-5.67-3.24L63.47,65.29a12.44,12.44,0,0,1,5.63-9.76l9.12-5.27,4.17,1.9,32.25-18.62,4.14-6.69Z"/><path class="cls-17" d="M127,59.63a3.33,3.33,0,0,0-3.38,0l-5.38,3.1v2.86l6.62-3.82a.91.91,0,0,1,1.36.79v9l2.47-1.43V62.56A3.34,3.34,0,0,0,127,59.63ZM126.26,100v6.64a6.73,6.73,0,0,1-3.35,5.8l-4.63,2.67V118l5.86-3.39a9.19,9.19,0,0,0,4.59-7.94V98.58ZM73.14,140.66a.89.89,0,0,1-.46-.79v-8.93l-2.47,1.43v7.5a3.37,3.37,0,0,0,5.07,2.93l5.38-3.1v-2.86L74,140.66A.86.86,0,0,1,73.14,140.66ZM74.8,87.84a9.18,9.18,0,0,0-4.59,8v8.13l2.47-1.43v-6.7A6.72,6.72,0,0,1,76,90l4.63-2.67V84.46Z"/><polygon class="cls-17" points="122.13 68.13 122.13 108.13 76.81 134.3 76.81 94.3 122.13 68.13"/><polygon class="cls-18" points="85.5 95.39 85.5 123.18 83.72 124.2 83.72 96.41 85.5 95.39"/><polygon class="cls-18" points="89.22 93.24 89.22 121.03 87.29 122.14 87.29 94.35 89.22 93.24"/><polygon class="cls-18" points="94.59 90.14 94.59 117.93 91.57 119.67 91.57 91.88 94.59 90.14"/><polygon class="cls-18" points="98.07 88.13 98.07 115.92 96.38 116.9 96.38 89.11 98.07 88.13"/><polygon class="cls-18" points="100.99 86.44 100.99 114.24 99.16 115.3 99.16 87.5 100.99 86.44"/><polygon class="cls-18" points="105.05 84.1 105.05 111.89 103.06 113.04 103.06 85.25 105.05 84.1"/><polygon class="cls-18" points="107.77 82.53 107.77 110.32 106.21 111.22 106.21 83.43 107.77 82.53"/><polygon class="cls-18" points="112.1 80.03 112.1 107.82 109.56 109.29 109.56 81.5 112.1 80.03"/><polygon class="cls-18" points="115.22 78.23 115.22 106.02 113.89 106.79 113.89 79 115.22 78.23"/><ellipse class="cls-7" cx="171.12" cy="192.65" rx="8.26" ry="14.31" transform="translate(-22.45 362.72) rotate(-89.69)"/><path class="cls-19" d="M183.61,190.57s.6.1.79,1a2.58,2.58,0,0,1-.05,1.61,7.28,7.28,0,0,1-1.2,1.77c-.38.23-.48.2-.48.2a20.78,20.78,0,0,1-2.27,3.7,8,8,0,0,1-5.17,2c-2.22,0-2.72-1.42-2.73-1.63s.11-1.08,2.09-2.44S183.61,190.57,183.61,190.57Z"/><path class="cls-20" d="M177.47,188.78c0,.12.2,2.41-.5,3.17a45.11,45.11,0,0,0-3.92,5,7.06,7.06,0,0,0-.07,2,3.58,3.58,0,0,0,4,1.2c2.43-.6,4-2.87,4.86-4.41s2.15-2.87,2.36-3.65a21.23,21.23,0,0,0,.16-3.38S177.47,188.78,177.47,188.78Z"/><path class="cls-19" d="M169.37,184.15c.53.4,1.73,1.41,1.75,2.17a4.14,4.14,0,0,1-.13,1.38A15.43,15.43,0,0,1,168.1,189c-.57.2-.85-.21-1.46.23s-2.18,1.65-3,2.23a7.25,7.25,0,0,1-4.58.86c-1.73-.27-1.9-.87-2-1.59a2.94,2.94,0,0,1,.49-1.88,5.79,5.79,0,0,1,3.4-1.36C163,187.18,169.37,184.15,169.37,184.15Z"/><path class="cls-20" d="M165.36,182.34a7.4,7.4,0,0,1-.78,1.86s-5.65,2.77-6.46,3.76a3.84,3.84,0,0,0-.8,2.26s.33,1.16,2.53,1.17A6.27,6.27,0,0,0,164.2,190a8.12,8.12,0,0,1,3-1.72c2-.47,3.66-1.16,3.63-2.16s-.19-3.23-.19-3.23Z"/><path class="cls-21" d="M168.35,102.27c-3.94-.57-6.21,2.91-7.48,7.76-.59,2.29-3.08,11.27-3.37,13.09s1.39,3.65,2.32,3.75,1.89.9,3.57-1.09S174.22,101.85,168.35,102.27Z"/><path class="cls-22" d="M158.66,120.6c-1.3.7-4.56,5.06-8,7.2-1.92,2.75.16,5,1.49,5s11.57-5.68,11.91-8C163.41,122.75,162.64,120.28,158.66,120.6Z"/><path class="cls-23" d="M150.35,127.11s-1.33.16-1.85.24a.9.9,0,0,0-.69.39l.06.6s-.52.32-.38.71.79.24.79.24l.95-.59s.85.22.93.4a1.09,1.09,0,0,0,1,.9,1.11,1.11,0,0,0,1.07-1.6A6.14,6.14,0,0,0,150.35,127.11Z"/><path class="cls-24" d="M163.94,134.77c-.92,4.45-2.37,6.72-2.09,12.25s.16,19.7,1,22.36,5.17,1.23,6.59.52a4.57,4.57,0,0,0,2.37-2.84c.24-.9,3.31-26.28,2.6-28.79S163.94,134.77,163.94,134.77Z"/><path class="cls-24" d="M168.18,140.21s-.62,6,0,9,3.52,3.36,3.8,4.3.53,13.38,1.43,16.31,9.56,3.82,9.74,1-.47-4.1.43-9.64,1.45-9.37.65-15.91a86.08,86.08,0,0,0-1.74-10.27C182.4,134.68,168.18,140.21,168.18,140.21Z"/><path class="cls-24" d="M172.5,168.46c-.08,1.76-.31,8-.54,11.45-.11,1.72-.23,3.3-.34,4.43-1,1.51-6.64,1.3-7-.43-.11-.53-.34-2.23-.61-4.33-.61-4.82-1.43-11.77-1.43-11.77s8.17-10.35,8.23-10S172.63,165.84,172.5,168.46Z"/><path class="cls-24" d="M185.32,187.38a5.09,5.09,0,0,1-.5,2.31c-.87,1.72-6.37,3.65-7.6.25a27.83,27.83,0,0,0-.44-3.13c-1-5.22-3.15-14-3.37-16.94l8.39-7.39s1.28-1.31,2.16,5.13A191.31,191.31,0,0,1,185.32,187.38Z"/><path class="cls-25" d="M185,196.63l-1.88-.12c.34-5.64-1.57-21.3-2.84-29.85a8.15,8.15,0,0,1-.06-2.09c1.61-16.88,1.24-18.24-.84-25.76l-.05-.18,1.81-.5.06.18c2.1,7.63,2.53,9.21.89,26.44a6.84,6.84,0,0,0,0,1.63C183.37,175,185.29,190.84,185,196.63Z"/><path class="cls-26" d="M175.63,103.31a35.66,35.66,0,0,1,10.15,5.43c.94,1-3.64,25.65-2.91,30.17-4.58,4.54-12.53,3.12-14.71,3s-4.63-1.76-5.11-3.66.29-12.37-.35-18-.36-9.91.7-13c2.84-8.42,8.43-2.87,8.43-2.87Z"/><path class="cls-22" d="M170.78,117.87s-.45,6-.43,6.77,3.43,1.52,3.43,1.52,3.32-.36,3.48-1.07.26-6.6.26-6.6Z"/><path class="cls-24" d="M183,137.49c0,1.29-5.37,3.71-11.61,2.83-.5-.07-1-.15-1.42-.24h0c-.68-.13-1.31-.28-1.9-.45-3.88-1.09-5.61-2.74-5.71-3s.43-12.21,0-15.74a44.6,44.6,0,0,1,.73-12.57c.75-3.46,2.38-4.93,5-5.84a13.81,13.81,0,0,1,4.71-1c0,.1-5.11,1.89-5.81,7.25a23.21,23.21,0,0,0,1.3,10.83,14.27,14.27,0,0,0,.94,2c.34-.55.65-1.07.94-1.56,3.95-6.71,3-7.46,8.66-13.43,1-1.07,1.21-1.06,1.23-1s-1.73-1.55-2.82-1.63,1.32-.08,1.32-.08c2.78,1.28,5.74,3.14,6.66,4.47-3.5,1.07-5.21,2.34-6.89,6.87s0,10.46,2.21,11.55,2.51.53,2.45.66S183,136.2,183,137.49Z"/><path class="cls-25" d="M170.15,121.61c0,.13-.48,12.36-.17,18.47-.68-.13-1.31-.28-1.9-.45-.26-6.25.16-17.33.19-18.08v-2a14.27,14.27,0,0,0,.94,2c.34-.55.65-1.07.94-1.56Z"/><path class="cls-22" d="M180.5,132.18a85.2,85.2,0,0,1-.27-14.94c.56-5,1.11-6.31,3.29-7.75,2.18-.87,2.26-.75,2.26-.75.92.44,2.21,1.51,2.49,12.25.19,7.24-.28,9.67-.61,10.28S180.5,132.18,180.5,132.18Z"/><path class="cls-23" d="M168.35,102.47s2.09,3.9,2,5.23,4.44.21,5.41-1.36,1.6-2.22,1.4-3.29a36.51,36.51,0,0,1-1.06-5.18c-.24-2.49-1.87-7.28-3.65-6.7S168.35,102.47,168.35,102.47Z"/><path class="cls-22" d="M176.69,101.11l.28,1s-.25,1.61-2.63,3.23a14.49,14.49,0,0,1-4,2l1.14,3.36a12.5,12.5,0,0,0,1.84-1c.95-.62,4.65-3.14,5.16-4.28a2.32,2.32,0,0,0,.27-1.68l-1.39-2.68Z"/><path class="cls-22" d="M169.35,105.63a4.67,4.67,0,0,0,1,1.78,6.61,6.61,0,0,1-2.19,2.38s-.15-2.93-.06-3.54S169.35,105.63,169.35,105.63Z"/><path class="cls-23" d="M152.42,128.15a4.36,4.36,0,0,1,.42,1.82,6.45,6.45,0,0,1-.42,2.19,5.76,5.76,0,0,1-1.55,1.07,4,4,0,0,1-1.91,0s-2.79-3.5-2.79-3.66a5,5,0,0,1,.09-.6l2.15-1.23,2.84.16Z"/><path class="cls-23" d="M168.15,137.81a13,13,0,0,0-1.34.1c-.35.06-1.17.31-1.17.31a1.08,1.08,0,0,1-1,.48c-.74,0-.74-.42-.74-.63s1-.72,1.32-1a11.85,11.85,0,0,1,2.15-.46,10.64,10.64,0,0,1,2.68.49c.5.27.81.47.81.47A5.61,5.61,0,0,1,168.15,137.81Z"/><g class="cls-2"><path class="cls-19" d="M170.93,146.05l-.66.82c.06-.08,0-.25-.17-.52l.66-.82C170.94,145.79,171,146,170.93,146.05Z"/><path class="cls-19" d="M143.39,124.11l.67-.83c.1-.12.46,0,1,.3l-.67.83C143.86,124.08,143.49,124,143.39,124.11Z"/><polygon class="cls-19" points="162.59 135.61 163.25 134.78 170.76 145.53 170.1 146.35 162.59 135.61"/><polygon class="cls-19" points="144.42 124.41 145.09 123.58 160.71 132.6 160.05 133.43 144.42 124.41"/><path class="cls-19" d="M160.05,133.43l.66-.83a9.44,9.44,0,0,1,2.54,2.18l-.66.83A9.6,9.6,0,0,0,160.05,133.43Z"/><path class="cls-19" d="M160.05,133.43a9.6,9.6,0,0,1,2.54,2.18l7.51,10.74c.46.67.08.77-.86.22l-15.62-9a9.31,9.31,0,0,1-2.54-2.19l-7.52-10.74c-.46-.66-.07-.76.86-.22Z"/></g><path class="cls-23" d="M147.25,130a6.33,6.33,0,0,1,1.4.2c.16.13.07.54.07.54l.69-.58s.56.36.57.72c.19.26.52.54.55.94l0,.4a1,1,0,0,1,.18.82c-.16.37-1.29,1-1.29,1s-1.48-.37-1.67-.65a1.92,1.92,0,0,1-.11-1l-.14-.31a.92.92,0,0,1-.77-.16c-.39-.29-.22-1-.22-1a2.62,2.62,0,0,1-.83-.68c-.21-.36.37-1.22.37-1.22l.19-.06.3.73Z"/><path class="cls-22" d="M170.67,141.4c.67,1,1.13.87,2.49.53s15.51-7.12,14.5-11.62-6-2.69-6.86-1.9a46.39,46.39,0,0,1-6.19,5.38c-3.41,2.43-5.46,3.3-5.69,3.8S170.67,141.4,170.67,141.4Z"/><path class="cls-23" d="M171.29,137.5a7.06,7.06,0,0,0-1.55-.51,22.07,22.07,0,0,0-3.15.54s-1.91.87-1.94,1.17-.08,1.19-.08,1.19l.13.27a2.1,2.1,0,0,0-.13.89,1.25,1.25,0,0,0,.41.55,1.36,1.36,0,0,0,.22.72c.21.21.36.18.36.18a2.91,2.91,0,0,0,.35.77,3.62,3.62,0,0,0,1.06.3,6.91,6.91,0,0,0,2,0c.6-.19,2.52-1.75,2.9-1.86a1.33,1.33,0,0,0,.62-.43S172.19,138.14,171.29,137.5Z"/><path class="cls-23" d="M163.56,91.88a3.88,3.88,0,0,0-.64,3.35,46.29,46.29,0,0,0,2.09,7.35,21,21,0,0,0,2.25,3.91,4.73,4.73,0,0,0,2.45.44c.72,0,4.46-2.74,5-4.19s.4-7.28-.52-9.2S165.23,91.32,163.56,91.88Z"/><path class="cls-27" d="M165.53,94.53a9.53,9.53,0,0,0,1.69,0c.66-.06,1.27-.3,1.93-.36a1.13,1.13,0,0,1,.45,0c.42.16.36.9.44,1.28a2.49,2.49,0,0,0,.44,1.15c.56.58,1.92,1,2.27,2.5l.19,1.25,1-.72a19.73,19.73,0,0,1-.08-2.57c.08-.81,1-2.21,1.89-.67a4.46,4.46,0,0,0,.66,3.24c.58-2.71,1.14-3.27,1.23-6.58s-.7-6.59-4.29-7c-3.17-1.62-5.73-1-8.64,1.69S162.3,93,162.32,93a1.88,1.88,0,0,0,.57.89,5.19,5.19,0,0,0,2.4.59Z"/><path class="cls-26" d="M169.54,97.11a1.89,1.89,0,0,1-.65-.1l.27-.71c.81.31,2.82-.61,4.77-1.48l.33-.15c2.5-1.13,2.77-2.75,2.77-3.39h.75c0,.79-.31,2.77-3.21,4.08l-.33.15C172.35,96.36,170.68,97.11,169.54,97.11Z"/><path class="cls-23" d="M174.58,96.74c.14-.94.56-1.21,1.27-1.18s1,.42.75,2-.8,2.31-1.47,2.39-.59-.67-.56-1.13S174.58,96.74,174.58,96.74Z"/><path class="cls-28" d="M177.93,91.14c-.18,2.5-5.64,5-9.58,5.68s-6.25-.32-7.2-1.79a12.08,12.08,0,0,1,.26-5.66A10.13,10.13,0,0,1,163,86.19c3.16-3.07,8.21-2.77,9.28-2.51,3.38,1.26,5.31,3.8,5.63,6.55A6.85,6.85,0,0,1,177.93,91.14Z"/><path class="cls-28" d="M174.46,85.7c.38,1.87-2,3.94-5.32,4.62s-6.33-.28-6.71-2.15,2-4,5.32-4.63S174.07,83.82,174.46,85.7Z"/><path class="cls-29" d="M161.06,94.42a2.82,2.82,0,0,0-.42,2.81c.69,1.48,4.35,2.2,6.81,1.61a8.88,8.88,0,0,0,4.24-2.9s-4.95,1.76-8.54.45C161.53,95.51,161.39,95.36,161.06,94.42Z"/><path class="cls-29" d="M172.75,85.83c.28,1.35-1.44,2.85-3.85,3.34s-4.57-.2-4.85-1.56,1.44-2.85,3.85-3.34S172.47,84.47,172.75,85.83Z"/><path class="cls-30" d="M177.93,91.14c-.18,2.5-5.64,5-9.58,5.68s-6.25-.32-7.2-1.79a12.08,12.08,0,0,1,.26-5.66c.27,2.55,1.57,4.43,5,5,3.12.56,9.38-1.11,11.44-4.19A6.85,6.85,0,0,1,177.93,91.14Z"/><polygon class="cls-7" points="105 222.4 129.84 208.06 154.55 222.32 129.71 236.66 105 222.4"/><polygon class="cls-7" points="68.38 206.69 103 186.7 137.45 206.59 102.82 226.58 68.38 206.69"/><polygon class="cls-31" points="73.57 206.69 102.82 223.58 102.82 191.64 73.57 174.75 73.57 206.69"/><polygon class="cls-32" points="132.26 206.59 102.82 223.58 102.82 191.64 132.26 174.65 132.26 206.59"/><polygon class="cls-32" points="129.71 210.64 129.71 234.48 150.54 222.46 150.54 198.61 129.71 210.64"/><polygon class="cls-31" points="109.01 222.53 129.71 234.48 129.71 210.64 109.01 198.69 109.01 222.53"/><polygon class="cls-33" points="109.01 198.69 129.71 210.64 150.54 198.61 129.84 186.66 109.01 198.69"/><polygon class="cls-33" points="73.57 174.75 102.82 191.64 132.26 174.65 103 157.76 73.57 174.75"/><polygon class="cls-30" points="141.86 214.72 138.39 216.72 138.39 205.63 141.86 203.62 141.86 214.72"/><polygon class="cls-28" points="141.86 203.62 138.39 205.63 117.69 193.68 121.16 191.67 141.86 203.62"/><polygon class="cls-34" points="86.46 196.22 89.93 198.22 89.93 184.2 86.46 182.2 86.46 196.22"/><polygon class="cls-28" points="86.46 182.2 89.93 184.2 119.36 167.21 115.9 165.2 86.46 182.2"/><polygon class="cls-31" points="81.26 171.6 102.09 159.57 122.8 171.53 101.98 183.56 81.26 171.6"/><polygon class="cls-31" points="102.09 160.96 102.09 181.61 84.39 171.39 84.39 150.74 102.09 160.96"/><polygon class="cls-32" points="119.68 171.45 102.09 181.61 102.09 160.96 119.68 150.8 119.68 171.45"/><polygon class="cls-33" points="119.68 150.8 102.09 160.96 84.39 150.74 101.98 140.58 119.68 150.8"/><polygon class="cls-30" points="112.62 165.06 109.15 167.07 109.15 156.88 112.62 154.88 112.62 165.06"/><polygon class="cls-28" points="112.62 154.88 109.15 156.88 91.45 146.66 94.92 144.66 112.62 154.88"/></g></g></g></svg>